<svg xmlns="http://www.w3.org/2000/svg" viewBox="0 0 3000 3000" width="3000" height="3000"><g transform="translate(427.2 2712.0) rotate(0.0 118.79999999999998 28.200000000000045) scale(0.9474401968251182 0.9282880984907104)"><svg width="250.781" height="60.757" viewBox="0 0 250.781 60.757"><ellipse cx="125.39" cy="30.378" fill="#232323" rx="125.39" ry="30.378"/></svg></g><g transform="translate(1504.8 322.8) rotate(0.0 620.9999999999999 1222.8) scale(1.2181426756964842 1.2174159778380114)"><svg width="1019.585" height="2008.845" viewBox="0 0 1019.585 2008.845"><clipPath id="a"><circle cx="295.572" cy="986.218" r="59.404"/></clipPath><clipPath id="b"><circle cx="295.572" cy="986.218" r="59.404"/></clipPath><clipPath id="c"><circle cx="416.204" cy="989.026" r="51.149"/></clipPath><clipPath id="d"><circle cx="573.185" cy="986.218" r="59.404"/></clipPath><clipPath id="e"><circle cx="573.185" cy="986.218" r="59.404"/></clipPath><clipPath id="f"><circle cx="693.817" cy="989.026" r="51.149"/></clipPath><path d="M153.551 3h712.483c83.147 0 150.551 67.404 150.551 150.551v1701.743c0 83.147-67.404 150.551-150.551 150.551H153.551C70.404 2005.845 3 1938.441 3 1855.294V153.551C3 70.404 70.404 3 153.551 3z" fill="#fff"/><path d="M866.034 2008.844H153.551C68.883 2008.844 0 1939.961 0 1855.293V153.551C0 68.882 68.883 0 153.551 0h712.483c84.668 0 153.551 68.883 153.551 153.552v1701.742c0 84.667-68.883 153.55-153.551 153.55zM153.551 6C72.191 6 6 72.191 6 153.551v1701.742c0 81.359 66.191 147.551 147.551 147.551h712.483c81.36 0 147.551-66.191 147.551-147.551V153.551C1013.585 72.191 947.394 6 866.034 6z" fill="#232323"/><path d="M166.211 62.394h687.164c53.629 0 97.104 43.475 97.104 97.104V1850.29c0 53.629-43.475 97.104-97.104 97.104H166.211c-53.629 0-97.104-43.475-97.104-97.104V159.497c.001-53.628 43.475-97.103 97.104-97.103z" fill="#fff"/><g fill="#232323"><path d="M853.375 1950.505H166.211c-55.259 0-100.214-44.957-100.214-100.215V159.498c0-55.258 44.956-100.215 100.214-100.215h687.164c55.259 0 100.214 44.957 100.214 100.215v1690.793c.001 55.257-44.955 100.214-100.214 100.214zm-687.164-1885c-51.828 0-93.993 42.164-93.993 93.992V1850.29c0 51.828 42.165 93.992 93.993 93.992h687.164c51.828 0 93.993-42.164 93.993-93.992V159.498c0-51.828-42.165-93.992-93.993-93.992H166.211z"/><path d="M229.386 668.398h544.597c5.539 0 10.029-4.49 10.029-10.029s-4.49-10.029-10.029-10.029H229.386c-5.539 0-10.029 4.49-10.029 10.029s4.49 10.029 10.029 10.029z"/><path d="M773.984 671.398H229.386c-7.184 0-13.029-5.845-13.029-13.028 0-7.185 5.845-13.029 13.029-13.029h544.597c7.184 0 13.029 5.845 13.029 13.029.001 7.183-5.844 13.028-13.028 13.028zM229.386 651.34a7.037 7.037 0 0 0-7.029 7.029c0 3.875 3.153 7.028 7.029 7.028h544.597c3.876 0 7.029-3.153 7.029-7.028a7.037 7.037 0 0 0-7.029-7.029zm0 564.745h544.597c5.539 0 10.029-4.49 10.029-10.029s-4.49-10.029-10.029-10.029H229.386c-5.539 0-10.029 4.49-10.029 10.029s4.49 10.029 10.029 10.029z"/><path d="M773.984 1219.085H229.386c-7.184 0-13.029-5.845-13.029-13.029s5.845-13.028 13.029-13.028h544.597c7.184 0 13.029 5.845 13.029 13.028.001 7.185-5.844 13.029-13.028 13.029zm-544.598-20.057c-3.876 0-7.029 3.153-7.029 7.028a7.037 7.037 0 0 0 7.029 7.029h544.597a7.037 7.037 0 0 0 7.029-7.029c0-3.875-3.153-7.028-7.029-7.028zm0 564.744h544.597c5.539 0 10.029-4.49 10.029-10.029s-4.49-10.029-10.029-10.029H229.386c-5.539 0-10.029 4.49-10.029 10.029s4.49 10.029 10.029 10.029z"/><path d="M773.984 1766.772H229.386c-7.184 0-13.029-5.845-13.029-13.028 0-7.185 5.845-13.029 13.029-13.029h544.597c7.184 0 13.029 5.845 13.029 13.029.001 7.183-5.844 13.028-13.028 13.028zm-544.598-20.058a7.037 7.037 0 0 0-7.029 7.029c0 3.875 3.153 7.028 7.029 7.028h544.597c3.876 0 7.029-3.153 7.029-7.028a7.037 7.037 0 0 0-7.029-7.029z"/></g><path d="M577.46 614.999s-.05-74.808 0-123.83c.049-48.255-13.435-49.331-22.213-65.457-8.425-15.479-8.425-39.479-8.425-39.479v-49.021h-80.377v49.021s0 24-8.425 39.479c-8.778 16.126-22.262 17.202-22.213 65.457.05 49.021 0 123.83 0 123.83s-2.65 32.17 30.845 32.17h79.963c33.495 0 30.845-32.17 30.845-32.17z" fill="#fff"/><path d="M546.614 650.28h-79.962c-10.997 0-19.579-3.264-25.507-9.7-9.206-9.996-8.561-24.037-8.449-25.695.002-3.314.049-76.127 0-123.712-.038-37.469 8.028-47.551 15.828-57.301 2.435-3.044 4.734-5.918 6.764-9.646 7.939-14.587 8.046-37.761 8.047-37.993v-49.021a3.111 3.111 0 0 1 3.111-3.111h80.376a3.112 3.112 0 0 1 3.111 3.111v49.021c0 .231.107 23.405 8.047 37.992 2.03 3.729 4.329 6.603 6.763 9.646 7.8 9.75 15.866 19.832 15.828 57.301-.049 47.585-.002 120.397 0 123.712.112 1.658.757 15.699-8.449 25.695-5.929 6.437-14.511 9.701-25.508 9.701zm-77.058-309.958v45.911c0 1.013-.1 24.976-8.804 40.967-2.292 4.211-4.874 7.438-7.37 10.558-7.457 9.322-14.501 18.126-14.465 53.409.05 48.462 0 123.086 0 123.834 0 .085-.004.169-.01.254-.009.119-.898 12.774 6.846 21.146 4.702 5.082 11.733 7.658 20.899 7.658h79.962c9.166 0 16.197-2.576 20.898-7.658 7.745-8.371 6.856-21.026 6.846-21.152a3.399 3.399 0 0 1-.01-.247c0-.748-.05-75.372 0-123.834.036-35.283-7.008-44.087-14.465-53.409-2.496-3.12-5.077-6.347-7.37-10.558-8.704-15.991-8.804-39.954-8.804-40.967v-45.911h-74.153z" fill="#232323"/><path d="M552.208 351.765h-91.149a6.894 6.894 0 0 1-6.894-6.894v-15.319a6.894 6.894 0 0 1 6.894-6.894h91.149a6.894 6.894 0 0 1 6.894 6.894v15.319a6.895 6.895 0 0 1-6.894 6.894z" fill="#00676c"/><path d="M435.804 494.134h142v81.698h-142z" fill="#fff"/><path d="M577.804 578.803h-142a2.97 2.97 0 0 1-2.97-2.971v-81.698a2.97 2.97 0 0 1 2.97-2.971h142a2.97 2.97 0 0 1 2.97 2.971v81.698a2.97 2.97 0 0 1-2.97 2.971zm-139.03-5.941h136.059v-75.757H438.774z" fill="#232323"/><ellipse cx="526.08" cy="1583.589" fill="#fff" rx="178.064" ry="71.555" transform="matrix(.4732 -.881 .881 .4732 -1117.932 1297.6863)"/><path d="M457.09 1747.22c-6.116 0-11.729-1.33-16.742-4.023-18.032-9.686-25.672-35.601-21.514-72.972 4.052-36.409 18.779-79.725 41.469-121.967s50.672-78.438 78.791-101.92c28.861-24.102 54.687-32.044 72.719-22.355 18.032 9.686 25.672 35.601 21.514 72.972-4.052 36.409-18.779 79.724-41.469 121.966l-2.74-1.472 2.74 1.472c-22.69 42.243-50.672 78.439-78.79 101.921-20.839 17.401-40.096 26.378-55.978 26.378zm138.11-320.971c-14.393 0-32.595 8.562-52.118 24.865-27.523 22.984-54.974 58.529-77.297 100.088s-36.801 84.073-40.767 119.711c-3.803 34.174 2.858 58.522 18.275 66.804 15.416 8.283 39.395.389 65.786-21.65 27.523-22.984 54.974-58.53 77.297-100.089s36.801-84.073 40.767-119.711c3.803-34.173-2.858-58.521-18.274-66.803-4.013-2.156-8.606-3.215-13.669-3.215z" fill="#232323"/><path d="M587.574 1525.898c-.429 0-.865-.093-1.279-.288-31.219-14.74-70.676-7.958-71.07-7.886a3 3 0 0 1-1.051-5.908c1.69-.299 41.752-7.179 74.682 8.368a3 3 0 0 1-1.282 5.714zm-25.501 52.301c-.429 0-.865-.093-1.279-.288-31.219-14.74-70.675-7.958-71.07-7.886a3 3 0 0 1-1.051-5.908c1.69-.299 41.752-7.178 74.682 8.368a3 3 0 0 1-1.282 5.714zm-24.615 52.301c-.429 0-.865-.093-1.279-.288-31.17-14.72-70.675-7.958-71.071-7.886a3.002 3.002 0 0 1-1.05-5.909c1.689-.299 41.752-7.181 74.682 8.368a3 3 0 0 1-1.282 5.715z" fill="#232323"/><path d="M262.621 1047.979s80.076 65.273 108.376 140.121c7.623 20.161 90.029-4.473 80.327-29.984-19.087-50.186-40.776-161.641-38.51-173.927l-19.699-3.449s17.125 108.726 6.637 108.641-69.379-124.511-69.379-124.511l-24.474 10.117s69.712 131.004 57.203 138.385c-12.508 7.381-95.894-97.612-95.894-97.612z" fill="#fff"/><path d="M388.757 1198.608c-2.567 0-4.964-.17-7.131-.522-8.966-1.461-12.312-5.638-13.539-8.885-27.684-73.219-106.637-138.163-107.432-138.811a3.11 3.11 0 0 1-1.114-2.85l4.586-32.22a3.11 3.11 0 0 1 5.515-1.496c.199.251 20.197 25.399 41.765 49.879 38.212 43.371 47.914 46.878 49.971 46.942.686-2.08.894-13.313-26.304-70.659-15.29-32.238-31.76-63.229-31.924-63.539a3.11 3.11 0 0 1 1.558-4.336l24.474-10.117a3.11 3.11 0 0 1 4 1.544c.141.297 14.241 30.06 29.657 60.082 24.473 47.661 33.328 59.216 36.332 61.961 2.444-7.993-.149-47.321-9.132-104.357a3.113 3.113 0 0 1 .892-2.703 3.126 3.126 0 0 1 2.717-.846l19.7 3.45a3.115 3.115 0 0 1 2.523 3.629c-2.121 11.5 19.243 121.994 38.359 172.256 1.487 3.909 2.036 10.067-3.788 17.206-11.53 14.131-41.725 24.392-61.685 24.392zm-122.813-151.905c10.72 9.062 81.726 70.907 107.962 140.297 1.174 3.104 5.39 4.402 8.72 4.944 17.095 2.787 51.371-7.414 62.996-21.661 3.213-3.938 4.126-7.556 2.793-11.062-17.489-45.984-38.789-149.431-38.865-172.444l-12.707-2.226c1.242 8.233 4.003 27.14 6.199 46.485 6.029 53.117 2.034 57.753.328 59.732-.958 1.112-2.239 1.724-3.608 1.724l-.037-.001c-3.155-.025-8.434-.068-41.363-63.974-13.182-25.582-25.61-51.434-29.531-59.645l-18.588 7.684c4.679 8.901 18.816 36.053 31.76 63.529 9.253 19.641 16.105 35.622 20.364 47.5 6.271 17.487 6.941 25.734 2.313 28.466-5.209 3.069-15.664-.453-56.548-46.656-16.077-18.169-31.492-36.989-38.858-46.095z" fill="#232323"/><path d="M436.804 1035.844c-14.9 6.55-31.22 5.44-44.56-1.62-1.29 6.75-5.78 12.77-12.54 15.74-6.66 2.93-14.01 2.23-19.81-1.23-1.4 10.25-7.93 19.54-18.09 24.01-9.19 4.04-19.28 3.23-27.41-1.31-2.56 15.38-12.59 29.2-27.92 35.95-24.19 10.64-52.41-.34-63.05-24.521-10.49-23.84.03-51.59 23.48-62.57-2.2-3.13-4.11-6.52-5.71-10.15-13.21-30.03.43-65.09 30.46-78.3 20.04-8.82 42.31-5.68 58.84 6.32 2.87-7.29 8.5-13.48 16.23-16.88 15.55-6.84 33.7.22 40.54 15.77 1.19 2.71 1.96 5.5 2.33 8.29 1.91-1.17 3.91-2.22 6.01-3.14 25.86-11.37 56.04.37 67.42 26.22 11.37 25.861-.36 56.041-26.22 67.421z" fill="#fff"/><path d="M267.285 1114.542c-19.6 0-38.322-11.368-46.708-30.426-5.396-12.265-5.77-25.922-1.052-38.456 4.287-11.389 12.339-20.703 22.871-26.555a63.155 63.155 0 0 1-4.049-7.707c-13.881-31.557.498-68.521 32.054-82.402 19.108-8.409 41.299-6.621 58.806 4.53 3.551-6.706 9.217-11.99 16.264-15.091 8.282-3.643 17.486-3.842 25.917-.562 8.431 3.279 15.081 9.646 18.724 17.928a34.224 34.224 0 0 1 1.684 4.759c.845-.427 1.7-.829 2.561-1.206 27.381-12.041 59.463.439 71.515 27.817 12.042 27.388-.435 59.471-27.814 71.52h-.001c-14.106 6.202-29.868 6.145-43.817-.042a24.725 24.725 0 0 1-13.284 14.161 24.79 24.79 0 0 1-18.797.463c-2.611 9.936-9.53 18.106-19.101 22.317-8.531 3.75-17.958 3.844-26.427.369-3.802 15.241-14.375 27.874-28.902 34.271a50.653 50.653 0 0 1-20.444 4.312zm28.226-184.588a56.09 56.09 0 0 0-22.604 4.738c-28.416 12.5-41.365 45.785-28.866 74.199a56.03 56.03 0 0 0 5.408 9.613 3.109 3.109 0 0 1-1.226 4.607c-10.617 4.971-18.74 13.758-22.875 24.741-4.142 11.003-3.814 22.992.924 33.759 9.931 22.57 36.376 32.855 58.95 22.926 13.857-6.102 23.616-18.667 26.104-33.613a3.111 3.111 0 0 1 4.585-2.205c7.648 4.271 16.629 4.698 24.641 1.178 8.868-3.901 14.947-11.97 16.26-21.583a3.108 3.108 0 0 1 1.733-2.382 3.108 3.108 0 0 1 2.943.131 18.58 18.58 0 0 0 16.963 1.054 18.51 18.51 0 0 0 10.738-13.476 3.11 3.11 0 0 1 4.511-2.166c13.066 6.915 28.321 7.471 41.852 1.522 24.24-10.668 35.287-39.073 24.625-63.32-10.67-24.236-39.075-35.283-63.32-24.625a46.76 46.76 0 0 0-5.637 2.945 3.113 3.113 0 0 1-4.709-2.243 27.491 27.491 0 0 0-2.095-7.448c-2.973-6.759-8.401-11.956-15.283-14.634s-14.396-2.515-21.156.46c-6.719 2.955-11.9 8.344-14.588 15.172a3.111 3.111 0 0 1-4.722 1.378c-9.76-7.086-21.427-10.728-33.156-10.728zm141.293 105.89h.01z" fill="#232323"/><path clip-path="url(#a)" d="M266.879 1114.903c-20.091 0-39.28-11.653-47.876-31.191-5.588-12.702-5.888-26.383-.844-38.523 4.97-11.961 14.777-21.659 27.615-27.308a52.233 52.233 0 0 1 48.701 3.506 3 3 0 1 1-3.175 5.092 46.232 46.232 0 0 0-43.111-3.105c-11.419 5.023-20.116 13.589-24.491 24.117-4.409 10.612-4.126 22.618.796 33.806 10.264 23.329 37.593 33.957 60.923 23.695a3 3 0 1 1 2.416 5.492 51.939 51.939 0 0 1-20.954 4.419z" fill="#232323"/><circle cx="359.109" cy="949.439" fill="none" r="30.758"/><path clip-path="url(#b)" d="M331.933 964.716a3.001 3.001 0 0 1-2.748-1.793c-3.869-8.794-4.082-18.568-.599-27.522 3.482-8.954 10.243-16.016 19.038-19.885 8.699-3.828 18.004-3.837 26.2-.023 7.82 3.637 14.286 10.548 18.208 19.462a3 3 0 1 1-5.492 2.416c-3.334-7.578-8.749-13.416-15.246-16.438-6.705-3.117-14.054-3.092-21.254.076-7.327 3.224-12.96 9.107-15.862 16.567-2.902 7.461-2.724 15.604.5 22.932a3 3 0 0 1-2.745 4.208z" fill="#232323"/><path clip-path="url(#c)" d="M371.005 1056.836c-3.265 0-6.535-.608-9.67-1.827-6.635-2.581-11.868-7.592-14.736-14.108a3 3 0 1 1 5.492-2.416 20.515 20.515 0 0 0 11.418 10.932 20.511 20.511 0 0 0 15.804-.344c10.761-4.734 11.962-17.278 7.587-27.223a20.656 20.656 0 0 0-6.211-7.979 3.001 3.001 0 0 1 3.682-4.738 26.704 26.704 0 0 1 8.021 10.302c6.396 14.539 1.812 29.643-10.663 35.131a26.608 26.608 0 0 1-10.724 2.27z" fill="#232323"/><path d="M749.467 614.999s-.05-74.808 0-123.83c.049-48.255-13.435-49.331-22.213-65.457-8.425-15.479-8.425-39.479-8.425-39.479v-49.021h-80.377v49.021s0 24-8.425 39.479c-8.778 16.126-22.262 17.202-22.213 65.457.05 49.021 0 123.83 0 123.83s-2.65 32.17 30.845 32.17h79.963c33.495 0 30.845-32.17 30.845-32.17z" fill="#fff"/><path d="M718.622 650.28H638.66c-10.997 0-19.579-3.264-25.507-9.7-9.206-9.996-8.561-24.037-8.449-25.695.002-3.314.049-76.127 0-123.712-.038-37.469 8.028-47.551 15.828-57.301 2.435-3.044 4.734-5.918 6.764-9.646 7.939-14.587 8.046-37.761 8.047-37.993v-49.021a3.111 3.111 0 0 1 3.111-3.111h80.376a3.112 3.112 0 0 1 3.111 3.111v49.021c0 .231.107 23.405 8.047 37.992 2.03 3.729 4.329 6.603 6.763 9.646 7.8 9.75 15.866 19.832 15.828 57.301-.049 47.585-.002 120.397 0 123.712.112 1.658.757 15.699-8.449 25.695-5.929 6.437-14.511 9.701-25.508 9.701zm-77.058-309.958v45.911c0 1.013-.1 24.976-8.804 40.967-2.292 4.211-4.874 7.438-7.37 10.558-7.457 9.322-14.501 18.126-14.465 53.409.05 48.462 0 123.086 0 123.834 0 .085-.004.169-.01.254-.009.119-.898 12.774 6.846 21.146 4.702 5.082 11.733 7.658 20.899 7.658h79.962c9.166 0 16.197-2.576 20.898-7.658 7.745-8.371 6.856-21.026 6.846-21.152a3.399 3.399 0 0 1-.01-.247c0-.748-.05-75.372 0-123.834.036-35.283-7.008-44.087-14.465-53.409-2.496-3.12-5.077-6.347-7.37-10.558-8.704-15.991-8.804-39.954-8.804-40.967v-45.911h-74.153z" fill="#232323"/><path d="M724.216 351.765h-91.149a6.894 6.894 0 0 1-6.894-6.894v-15.319a6.894 6.894 0 0 1 6.894-6.894h91.149a6.894 6.894 0 0 1 6.894 6.894v15.319a6.895 6.895 0 0 1-6.894 6.894z" fill="#00676c"/><path d="M607.804 494.134h142v81.698h-142z" fill="#fff"/><path d="M749.804 578.803h-142a2.97 2.97 0 0 1-2.97-2.971v-81.698a2.97 2.97 0 0 1 2.97-2.971h142a2.97 2.97 0 0 1 2.97 2.971v81.698a2.97 2.97 0 0 1-2.97 2.971zm-139.03-5.941h136.059v-75.757H610.774z" fill="#232323"/><path d="M406.98 614.999s-.05-74.808 0-123.83c.049-48.255-13.435-49.331-22.213-65.457-8.425-15.479-8.425-39.479-8.425-39.479v-49.021h-80.377v49.021s0 24-8.425 39.479c-8.778 16.126-22.262 17.202-22.213 65.457.05 49.021 0 123.83 0 123.83s-2.65 32.17 30.845 32.17h79.963c33.495 0 30.845-32.17 30.845-32.17z" fill="#fff"/><path d="M376.135 650.28h-79.962c-10.997 0-19.579-3.264-25.507-9.7-9.206-9.996-8.561-24.037-8.449-25.695.002-3.314.049-76.127 0-123.712-.038-37.469 8.028-47.551 15.828-57.301 2.435-3.044 4.734-5.918 6.764-9.646 7.939-14.587 8.046-37.761 8.047-37.993v-49.021a3.111 3.111 0 0 1 3.111-3.111h80.376a3.112 3.112 0 0 1 3.111 3.111v49.021c0 .231.107 23.405 8.047 37.992 2.03 3.729 4.329 6.603 6.763 9.646 7.8 9.75 15.866 19.832 15.828 57.301-.049 47.585-.002 120.397 0 123.712.112 1.658.757 15.699-8.449 25.695-5.929 6.437-14.511 9.701-25.508 9.701zm-77.058-309.958v45.911c0 1.013-.1 24.976-8.804 40.967-2.292 4.211-4.874 7.438-7.37 10.558-7.457 9.322-14.501 18.126-14.465 53.409.05 48.462 0 123.086 0 123.834 0 .085-.004.169-.01.254-.009.119-.898 12.774 6.846 21.146 4.702 5.082 11.733 7.658 20.899 7.658h79.962c9.166 0 16.197-2.576 20.898-7.658 7.745-8.371 6.856-21.026 6.846-21.152a3.399 3.399 0 0 1-.01-.247c0-.748-.05-75.372 0-123.834.036-35.283-7.008-44.087-14.465-53.409-2.496-3.12-5.077-6.347-7.37-10.558-8.704-15.991-8.804-39.954-8.804-40.967v-45.911h-74.153z" fill="#232323"/><path d="M381.728 351.765h-91.149a6.894 6.894 0 0 1-6.894-6.894v-15.319a6.894 6.894 0 0 1 6.894-6.894h91.149a6.894 6.894 0 0 1 6.894 6.894v15.319a6.894 6.894 0 0 1-6.894 6.894z" fill="#00676c"/><path d="M265.804 494.134h141v81.698h-141z" fill="#fff"/><path d="M406.804 578.793h-141a2.96 2.96 0 0 1-2.96-2.96v-81.698a2.96 2.96 0 0 1 2.96-2.96h141a2.96 2.96 0 0 1 2.96 2.96v81.698a2.96 2.96 0 0 1-2.96 2.96zm-138.04-5.92h135.08v-75.778h-135.08z" fill="#232323"/><path d="M540.234 1047.979s80.076 65.273 108.376 140.121c7.623 20.161 90.029-4.473 80.327-29.984-19.087-50.186-40.776-161.641-38.51-173.927l-19.7-3.449s17.125 108.726 6.637 108.641-69.38-124.511-69.38-124.511l-24.474 10.117s69.711 131.004 57.203 138.385-95.894-97.612-95.894-97.612z" fill="#fff"/><path d="M666.37 1198.608c-2.567 0-4.964-.17-7.131-.522-8.966-1.461-12.311-5.638-13.539-8.885-27.67-73.183-106.637-138.163-107.432-138.811a3.111 3.111 0 0 1-1.114-2.85l4.586-32.22a3.11 3.11 0 0 1 5.515-1.496c.199.251 20.197 25.399 41.765 49.879 38.212 43.37 47.914 46.878 49.971 46.942.686-2.08.894-13.313-26.304-70.659-15.29-32.238-31.76-63.229-31.924-63.539a3.11 3.11 0 0 1 1.558-4.336l24.474-10.117a3.11 3.11 0 0 1 4 1.544c.141.297 14.241 30.06 29.657 60.082 24.473 47.661 33.328 59.216 36.333 61.961 2.444-7.993-.149-47.321-9.132-104.357a3.113 3.113 0 0 1 3.609-3.549l19.699 3.45a3.115 3.115 0 0 1 2.523 3.629c-2.121 11.5 19.243 121.994 38.359 172.256 1.487 3.909 2.036 10.067-3.788 17.206-11.53 14.131-41.726 24.392-61.685 24.392zm-122.813-151.905c10.72 9.062 81.726 70.907 107.962 140.297 1.173 3.104 5.389 4.402 8.719 4.944 17.1 2.791 51.371-7.414 62.996-21.661 3.213-3.938 4.126-7.556 2.793-11.062-17.489-45.984-38.789-149.431-38.865-172.444l-12.707-2.226c1.242 8.233 4.003 27.14 6.199 46.485 6.029 53.117 2.034 57.753.327 59.732-.958 1.112-2.239 1.724-3.608 1.724l-.037-.001c-3.155-.025-8.434-.068-41.363-63.974-13.182-25.582-25.61-51.434-29.531-59.645l-18.588 7.684c4.679 8.901 18.816 36.053 31.76 63.529 9.253 19.641 16.105 35.622 20.364 47.5 6.271 17.487 6.941 25.734 2.313 28.466-5.208 3.073-15.663-.452-56.548-46.656-16.077-18.169-31.492-36.989-38.858-46.095z" fill="#232323"/><path d="M714.414 1035.844c-14.89 6.55-31.22 5.44-44.56-1.63-1.29 6.75-5.76 12.78-12.53 15.75-6.67 2.93-14.01 2.23-19.82-1.23-1.4 10.25-7.93 19.54-18.09 24.01-9.18 4.04-19.28 3.23-27.41-1.31-2.56 15.38-12.59 29.2-27.92 35.95-24.18 10.64-52.41-.34-63.05-24.521-10.49-23.84.03-51.6 23.49-62.57-2.2-3.13-4.11-6.52-5.71-10.15-13.21-30.03.42-65.09 30.45-78.3 20.04-8.81 42.31-5.68 58.84 6.31 2.87-7.28 8.5-13.47 16.23-16.87 15.55-6.84 33.7.22 40.54 15.77 1.19 2.71 1.96 5.5 2.33 8.29 1.91-1.17 3.91-2.22 6.01-3.14 25.86-11.37 56.05.37 67.42 26.22 11.38 25.861-.36 56.041-26.22 67.421z" fill="#fff"/><path d="M544.892 1114.544c-19.6.002-38.318-11.367-46.706-30.428-5.397-12.266-5.77-25.924-1.05-38.46 4.289-11.391 12.344-20.705 22.879-26.553a62.845 62.845 0 0 1-4.048-7.705c-13.882-31.559.493-68.523 32.044-82.402 19.113-8.402 41.304-6.617 58.806 4.522 3.552-6.701 9.218-11.983 16.264-15.083 8.282-3.643 17.486-3.842 25.917-.562 8.431 3.279 15.081 9.646 18.724 17.928a34.224 34.224 0 0 1 1.684 4.759c.845-.427 1.7-.829 2.56-1.206 27.388-12.041 59.472.435 71.516 27.817 12.05 27.383-.427 59.467-27.815 71.52-14.105 6.203-29.869 6.145-43.817-.051a24.698 24.698 0 0 1-13.276 14.171 24.837 24.837 0 0 1-18.805.459c-2.61 9.938-9.529 18.109-19.102 22.32-8.526 3.753-17.953 3.846-26.427.369-3.802 15.241-14.374 27.874-28.902 34.271a50.638 50.638 0 0 1-20.446 4.314zm28.236-184.586c-7.682 0-15.39 1.56-22.612 4.734-28.41 12.497-41.354 45.783-28.854 74.199a56.1 56.1 0 0 0 5.407 9.613 3.111 3.111 0 0 1-1.227 4.608c-10.62 4.966-18.746 13.751-22.883 24.737-4.143 11.004-3.816 22.994.922 33.762 9.933 22.572 36.377 32.858 58.95 22.926 13.858-6.102 23.617-18.668 26.104-33.613a3.111 3.111 0 0 1 4.585-2.205c7.652 4.272 16.633 4.703 24.64 1.178 8.869-3.901 14.948-11.97 16.261-21.583a3.112 3.112 0 0 1 4.674-2.252 18.618 18.618 0 0 0 16.977 1.055 18.498 18.498 0 0 0 10.726-13.486 3.11 3.11 0 0 1 4.512-2.165c13.066 6.927 28.32 7.483 41.851 1.532h-.001c24.248-10.671 35.295-39.076 24.626-63.319-10.663-24.243-39.07-35.289-63.321-24.626a46.76 46.76 0 0 0-5.637 2.945 3.11 3.11 0 0 1-4.708-2.243 27.525 27.525 0 0 0-2.094-7.448c-2.973-6.759-8.401-11.956-15.283-14.634s-14.396-2.515-21.156.46c-6.718 2.955-11.899 8.34-14.588 15.163a3.112 3.112 0 0 1-4.721 1.378c-9.757-7.079-21.421-10.716-33.15-10.716zm141.286 105.886h.01z" fill="#232323"/><path clip-path="url(#d)" d="M544.433 1114.932c-6.397 0-12.804-1.19-18.946-3.579-13-5.057-23.254-14.873-28.871-27.642-5.64-12.818-6.31-26.46-1.888-38.413 4.471-12.085 13.938-21.821 26.658-27.418a52.233 52.233 0 0 1 48.701 3.506 3 3 0 1 1-3.175 5.092 46.232 46.232 0 0 0-43.111-3.105c-11.219 4.935-19.546 13.462-23.448 24.008-3.879 10.484-3.257 22.529 1.753 33.915 4.972 11.302 14.047 19.99 25.554 24.466 11.507 4.474 24.068 4.2 35.369-.771a3 3 0 0 1 2.416 5.492c-6.734 2.964-13.867 4.449-21.012 4.449z" fill="#232323"/><circle cx="636.722" cy="949.439" fill="none" r="30.758"/><path clip-path="url(#e)" d="M609.546 964.716a3.001 3.001 0 0 1-2.748-1.793c-3.869-8.794-4.082-18.568-.599-27.522s10.243-16.016 19.038-19.885c8.698-3.828 18.003-3.836 26.2-.023 7.82 3.637 14.286 10.548 18.208 19.462a3 3 0 1 1-5.492 2.416c-3.334-7.578-8.748-13.416-15.246-16.438-6.705-3.117-14.054-3.092-21.254.076-7.327 3.224-12.96 9.107-15.862 16.567-2.902 7.461-2.724 15.604.499 22.932a3 3 0 0 1-2.744 4.208z" fill="#232323"/><path clip-path="url(#f)" d="M647.008 1056.805c-9.581.001-18.342-5.78-22.796-15.904a3 3 0 1 1 5.492-2.416c4.706 10.697 15.077 15.049 25.222 10.588 10.424-4.586 15.174-16.798 10.587-27.223a20.656 20.656 0 0 0-6.211-7.979 3.001 3.001 0 0 1 3.682-4.738 26.704 26.704 0 0 1 8.021 10.302c5.918 13.453-.211 29.212-13.663 35.131-3.442 1.514-6.94 2.239-10.334 2.239z" fill="#232323"/><ellipse cx="708.817" cy="1583.589" fill="#fff" rx="178.064" ry="71.555" transform="matrix(.4732 -.881 .881 .4732 -1021.6664 1458.6691)"/><path d="M639.827 1747.22c-6.116 0-11.729-1.33-16.742-4.023-18.032-9.686-25.673-35.601-21.514-72.972 4.052-36.409 18.779-79.725 41.469-121.967s50.672-78.438 78.79-101.92c28.861-24.102 54.686-32.044 72.719-22.355 18.032 9.686 25.672 35.601 21.514 72.972-4.052 36.409-18.779 79.724-41.469 121.966l-2.74-1.472 2.74 1.472c-22.69 42.243-50.672 78.439-78.79 101.921-20.838 17.401-40.096 26.378-55.977 26.378zm138.109-320.971c-14.393 0-32.595 8.562-52.118 24.865-27.523 22.984-54.974 58.529-77.297 100.088s-36.801 84.073-40.767 119.711c-3.803 34.174 2.858 58.522 18.275 66.804 15.416 8.285 39.395.391 65.786-21.65 27.523-22.984 54.974-58.53 77.297-100.089s36.801-84.073 40.767-119.711c3.803-34.173-2.858-58.521-18.275-66.803-4.011-2.156-8.604-3.215-13.668-3.215z" fill="#232323"/><path d="M770.311 1525.898c-.429 0-.865-.093-1.279-.288-31.219-14.74-70.676-7.958-71.07-7.886a3.001 3.001 0 0 1-1.051-5.908c1.69-.299 41.752-7.179 74.682 8.368a3 3 0 0 1-1.282 5.714zm-25.502 52.301c-.429 0-.865-.093-1.279-.288-31.219-14.74-70.676-7.958-71.07-7.886a3 3 0 0 1-1.051-5.908c1.69-.299 41.752-7.178 74.682 8.368a3 3 0 0 1-1.282 5.714zm-24.615 52.301c-.429 0-.865-.093-1.279-.288-31.17-14.72-70.676-7.958-71.071-7.886a3.001 3.001 0 0 1-1.05-5.909c1.689-.299 41.752-7.181 74.682 8.368a3 3 0 0 1-1.282 5.715z" fill="#232323"/><ellipse cx="343.343" cy="1583.589" fill="#fff" rx="178.064" ry="71.555" transform="matrix(.4732 -.881 .881 .4732 -1214.1975 1136.7035)"/><path d="M274.353 1747.22c-6.116 0-11.729-1.33-16.742-4.023-18.032-9.686-25.673-35.601-21.514-72.972 4.052-36.409 18.779-79.725 41.469-121.967s50.672-78.438 78.79-101.92c28.861-24.102 54.686-32.044 72.719-22.355 18.032 9.686 25.672 35.601 21.514 72.972-4.052 36.409-18.779 79.724-41.469 121.966l-2.74-1.472 2.74 1.472c-22.69 42.243-50.672 78.439-78.79 101.921-20.838 17.401-40.095 26.378-55.977 26.378zm138.11-320.971c-14.393 0-32.595 8.562-52.118 24.865-27.523 22.984-54.974 58.529-77.297 100.088s-36.801 84.073-40.767 119.711c-3.803 34.174 2.858 58.522 18.275 66.804 15.416 8.285 39.395.391 65.786-21.65 27.523-22.984 54.974-58.53 77.297-100.089s36.801-84.073 40.767-119.711c3.803-34.173-2.858-58.521-18.275-66.803-4.012-2.156-8.605-3.215-13.668-3.215z" fill="#232323"/><path d="M404.837 1525.898c-.429 0-.865-.093-1.279-.288-31.219-14.74-70.675-7.958-71.07-7.886a3.001 3.001 0 0 1-1.051-5.908c1.69-.299 41.752-7.179 74.682 8.368a3 3 0 0 1-1.282 5.714zm-25.501 52.301c-.429 0-.865-.093-1.279-.288-31.219-14.74-70.675-7.958-71.07-7.886a3 3 0 0 1-1.051-5.908c1.69-.299 41.752-7.178 74.682 8.368a3 3 0 0 1-1.282 5.714zm-24.615 52.301c-.429 0-.865-.093-1.279-.288-31.17-14.72-70.676-7.958-71.071-7.886a3.001 3.001 0 0 1-1.05-5.909c1.689-.299 41.751-7.181 74.682 8.368a3 3 0 0 1-1.282 5.715z" fill="#232323"/><path d="m839.896 743.359-84.926-40.912-86.478 40.629c-3.83 1.799-8.23-1.001-8.221-5.233l.395-191.503c.026-12.839 10.456-23.225 23.294-23.199l141.404.291c12.839.026 23.225 10.456 23.199 23.294l-.394 191.446c-.01 4.249-4.448 7.03-8.273 5.187z" fill="#d9c6f4"/><path d="M694.283 670.912a3.499 3.499 0 0 1-2.505-5.943c.201-.207 20.187-20.737 24.777-28.695 2.991-5.186 3.495-10.179 1.417-14.062-1.584-2.96-4.497-4.854-7.791-5.068-4.168-.264-7.431 1.339-9.969 4.922-2.091 2.948-2.831 6.121-2.839 6.152a3.507 3.507 0 0 1-4.179 2.644 3.493 3.493 0 0 1-2.654-4.16c1.338-6.085 7.258-17.349 20.094-16.543 5.726.372 10.776 3.643 13.51 8.751 3.214 6.006 2.658 13.61-1.525 20.862-3.39 5.876-13.568 17.111-20.097 24.073l22.513-.183h.029a3.5 3.5 0 0 1 .028 7l-30.779.25h-.03zm60.545-13.941a3.5 3.5 0 0 1-3.498-3.434l-.511-26.775a3.498 3.498 0 0 1 3.432-3.565 3.485 3.485 0 0 1 3.566 3.433l.511 26.775a3.498 3.498 0 0 1-3.432 3.565l-.068.001z" fill="#fff"/><path d="M741.184 643.839a3.5 3.5 0 0 1-.066-6.999l26.775-.512.068-.001a3.5 3.5 0 0 1 .066 6.999l-26.775.512-.068.001zm62.267 26.185a3.5 3.5 0 0 1-3.499-3.472l-.36-44.253c-2.673 2.556-6.145 5.266-10.343 7.279a3.497 3.497 0 0 1-4.669-1.642 3.5 3.5 0 0 1 1.642-4.669c8.641-4.146 13.777-12.193 13.828-12.274a3.509 3.509 0 0 1 3.921-1.505 3.497 3.497 0 0 1 2.545 3.335l.437 53.672a3.5 3.5 0 0 1-3.471 3.528l-.031.001z" fill="#fff"/><path d="M789.318 670.138a3.5 3.5 0 0 1-.029-7l28.199-.229c1.941-.031 3.513 1.538 3.529 3.472a3.5 3.5 0 0 1-3.471 3.528l-28.199.229h-.029zm-105.21-98.01a3.5 3.5 0 0 1-.002-7l20-.004a3.5 3.5 0 0 1 .002 7zm40-.006a3.5 3.5 0 1 1 0-7l20-.003a3.5 3.5 0 1 1 0 7zm40-.007a3.5 3.5 0 1 1 0-7l20-.003a3.5 3.5 0 1 1 0 7zm40-.007a3.5 3.5 0 1 1 0-7l20-.003a3.5 3.5 0 1 1 0 7z" fill="#fff"/><path d="M852.753 1772.453c-2.738 10.208-32.254 8.353-37.715 16.762-5.66 8.715 7.923 34.883.009 41.278-7.993 6.459-30.785-12.323-40.377-8.634-9.497 3.652-13.853 32.894-24.231 33.433-10.013.52-17.377-28.003-27.584-30.741-10.208-2.738-30.857 18.273-39.266 12.812-8.715-5.66 2.146-33.158-4.249-41.072-6.459-7.993-35.59-3.138-39.279-12.729-3.652-9.497 21.203-25.356 20.663-35.733-.52-10.013-27.004-23.177-24.266-33.384 2.738-10.208 32.254-8.353 37.715-16.762 5.66-8.715-7.923-34.883-.009-41.278 7.993-6.459 30.785 12.323 40.377 8.634 9.497-3.652 13.853-32.894 24.231-33.433 10.013-.52 17.377 28.003 27.584 30.741 10.208 2.738 30.857-18.273 39.266-12.811 8.715 5.66-2.146 33.158 4.249 41.072 6.459 7.993 35.59 3.138 39.279 12.729 3.652 9.497-21.203 25.356-20.663 35.733.52 10.011 27.003 23.175 24.266 33.383z" fill="#d9c6f4"/><path d="M710.665 1797.458a2.999 2.999 0 0 1-2.486-4.675l66.201-98.349a2.996 2.996 0 0 1 4.164-.813 2.999 2.999 0 0 1 .813 4.163l-66.201 98.349a2.993 2.993 0 0 1-2.491 1.325z" fill="#fff"/><circle cx="710.054" cy="1716.754" fill="#fff" r="16.063"/><circle cx="779.276" cy="1775.482" fill="#fff" r="16.063"/></svg></g><g transform="translate(99.6 1732.8) rotate(0.0 259.79999999999995 241.19999999999993) scale(1.215549488725287 1.2175853243612973)"><svg width="427.461" height="396.194" viewBox="0 0 427.461 396.194"><path d="M319.772 157.342a3 3 0 0 1-2.569-4.545l23.102-38.47c5.453-9.08 7.043-19.74 4.478-30.017s-8.978-18.939-18.058-24.392l-69.072-41.479c-18.745-11.256-43.153-5.164-54.409 13.58L179.619 71.36a2.999 2.999 0 1 1-5.143-3.089L198.1 28.93C211.059 7.349 239.161.335 260.742 13.295l69.072 41.479c10.454 6.278 17.838 16.251 20.791 28.083s1.122 24.104-5.156 34.559l-23.102 38.47a2.999 2.999 0 0 1-2.575 1.456z" fill="#232323"/><path d="M230.151 396.206a48.204 48.204 0 0 1-24.869-6.909L23.449 280.102a48.251 48.251 0 0 1-20.243-58.715L78.391 25.222a9.71 9.71 0 0 1 5.914-5.716 9.705 9.705 0 0 1 8.18.857l310.137 186.244a9.706 9.706 0 0 1 4.603 6.831 9.707 9.707 0 0 1-2.287 7.914L266.535 379.675c-9.463 10.825-22.83 16.53-36.384 16.531zM87.478 24.973a3.728 3.728 0 0 0-3.484 2.395L8.808 223.534a42.26 42.26 0 0 0 17.729 51.425L208.37 384.153c17.586 10.561 40.147 7.016 53.647-8.428L400.42 217.401c.729-.833 1.048-1.939.876-3.033s-.815-2.048-1.764-2.619L89.396 25.506a3.728 3.728 0 0 0-1.918-.533z" fill="#232323"/><path d="m325.366 72.342-75.468-45.32a8.171 8.171 0 0 1-2.798-11.211l6.216-10.351a8.171 8.171 0 0 1 11.211-2.798l75.468 45.32a8.171 8.171 0 0 1 2.798 11.211l-6.216 10.351a8.171 8.171 0 0 1-11.211 2.798z" fill="#d9c6f4"/><g fill="#232323"><path d="M53.958 295.138a3 3 0 0 1-2.71-4.284l105.288-222.44a3 3 0 0 1 5.423 2.567L56.671 293.421a3.001 3.001 0 0 1-2.713 1.717zm64.187 37.272a3.001 3.001 0 0 1-2.56-4.561l126.243-207.307a3 3 0 1 1 5.125 3.121L120.71 330.97a3 3 0 0 1-2.565 1.44zm65.003 38.831a3.002 3.002 0 0 1-2.405-4.791l146.874-197.466a3.002 3.002 0 0 1 4.198-.617 3.002 3.002 0 0 1 .617 4.198L185.557 370.031a2.993 2.993 0 0 1-2.409 1.21z"/><path d="M353.246 278.935c-.529 0-1.064-.14-1.55-.434L53.362 97.996a3.001 3.001 0 0 1 3.106-5.134l298.334 180.505a3 3 0 0 1-1.556 5.568zm-61.483 68.986a2.985 2.985 0 0 1-1.542-.429L20.527 185.536a3 3 0 0 1 3.089-5.143L293.31 342.349a3 3 0 0 1-1.547 5.572z"/></g><path d="M408.868 230.428 67.661 25.526a8.171 8.171 0 0 1-2.798-11.211l6.216-10.351A8.171 8.171 0 0 1 82.29 1.166l341.207 204.902a8.171 8.171 0 0 1 2.798 11.211l-6.216 10.351a8.171 8.171 0 0 1-11.211 2.798z" fill="#d9c6f4"/></svg></g><g transform="translate(307.2 303.59999999999997) rotate(0.0 831.5999999999999 1232.4) scale(1.2203971867467447 1.219746351351084)"><svg width="1362.835" height="2020.748" viewBox="0 0 1362.835 2020.748"><clipPath id="g"><path d="M325.203 1731.599c-.718.3-70.821 36.919-70.859 36.927l-72.639-72.209s19.753-52.114 20.057-52.273c0 0 34.102-28.97 34.915-29.455z"/></clipPath><clipPath id="h"><path d="m629.786 1779.778-36.896 88.485-64.724 1.316-56.254-45.824s6.432-60.074 6.658-60.894z"/></clipPath><clipPath id="i"><path d="M783.865 1022.19c-17.822 80.611-10.202 95.245-2.719 154.66 14.3 113.503 10.507 187.471-2.591 236.809-23.392 88.112-65.068 108.936-89.62 136.11-6.164 62.954-16.565 116.517-45.258 193.318-86.809 7.978-150.972-39.904-202.023-82.487-47.85-39.908-94.925-51.273-104.886-15.548 4.29-22.857 10.248-46.224 14.795-58.876-44.852-23.712-49.727-60.946-57.44-96.18-16.665-82.538-62.787-78.112-74.624-63.151 13.132-23.753 165.178-36.163 198.533-33.708 29.236-118.727 23.241-180.474-14.983-290.605-38.429-110.714-20.274-154.104-21.178-156.266z"/></clipPath><clipPath id="j"><path d="M764.021 1001.407c2.069 63.973 9.642 116.028 17.126 175.444 14.3 113.503 10.507 187.471-2.591 236.809-23.392 88.112-64.068 108.936-88.62 136.11-9.323 62.306-17.565 116.517-46.258 193.318-86.809 7.978-150.972-39.904-202.023-82.487-47.85-39.908-94.925-51.273-104.886-15.548 4.29-22.857 10.248-46.224 14.795-58.876-44.852-23.712-49.727-60.946-57.44-96.18-16.665-82.538-62.787-78.112-74.624-63.151 13.132-23.753 165.178-36.163 198.533-33.708 29.236-118.727 23.242-180.474-14.983-290.605-38.427-110.714-20.274-154.104-21.178-156.266z"/></clipPath><clipPath id="k"><path d="M560.429 310.071s38.867 32.321 95.617 48.072c26.52 7.361 50.372 4.993 56.931 2.51 17.663 30.56 72.492 139.927 102.663 229.09 19.363 57.222 30.608 68.99 2.449 105.235 8.959 95.505 8.737 224.914-16.623 358.325-11.203-23.134-120.02-33.197-274.106-34.681-2.798-28.835-6.564-53.606-10.336-76.225-8.48 13.191-26.885 56.33-36.664 75.237-38.155-1.011-110.33-4.561-127.291 9.572-.001-81.983 19.844-531.506 207.36-717.135z"/></clipPath><clipPath id="l"><path d="M782.597 32.498c-11.54-6.067-23.469-10.276-35.148-4.48-15.2-41.5-67.949-30.96-75.927-.016-36.914-29.347-83.709 11.71-69.009 46.262 5.398 12.685 13.9 34.596 7.807 55.805 18.133 8.667 51.734 58.679 51.734 58.679s64.349-85.26 96.918-87.514c51.21-3.55 48.068-55.199 23.625-68.736z"/></clipPath><clipPath id="m"><path d="M564.573 337.31s-276.453 31.659-375.33 315.956c-60.456 173.827-52.487 387.204-98.889 495.503-14.298 2.043-36.519 26.105-39.991 67.895-2.222 26.743 12.173 36.153 24.822 33.531 0 0 4.046 20.04 31.598 13.533 0 0 11.511 21.06 33.966 9.191 0 0 35.334 46.76 82.864-79.265s129.576-261.178 156.438-407.561c23.064-46.916 260.742-373.228 184.522-448.783z"/></clipPath><path d="M736.705 1030.11c27.893 7.512 62.19 25.441 65.016 39.575.079 7.915-17.903 15.072-66.896 13.193s-379.87-2.155-381.755-39.847c-2.496-49.879 294.031-37.053 383.635-12.921z" fill="#232323"/><path d="M749.87 1086.183c-4.767 0-9.82-.103-15.16-.307-6.693-.257-18.943-.489-34.452-.782-50.877-.964-136.031-2.575-210.335-8.048-41.268-3.039-73.715-6.914-96.44-11.516-38.296-7.755-43.115-16.47-43.41-22.351-.273-5.452 2.278-10.387 7.583-14.667 44.884-36.21 297.551-23.46 379.828-1.3 25.063 6.749 63.747 24.729 67.178 41.884.037.184.056.37.058.558.017 1.685-.498 4.214-3.047 6.691-6.669 6.485-24.455 9.837-51.803 9.838zm-240.588-74.296c-68.322 0-128.838 5.951-147.858 21.296-3.779 3.049-5.531 6.221-5.357 9.697.136 2.72 4.17 9.796 38.608 16.77 22.479 4.552 54.674 8.392 95.69 11.412 74.14 5.461 159.191 7.071 210.007 8.033 15.541.294 27.817.526 34.568.785 32.827 1.261 56.209-1.671 62.552-7.837.978-.95 1.179-1.677 1.22-2.077-2.937-12.287-35.376-29.578-62.787-36.96-44-11.849-141.393-21.119-226.643-21.119zM401.818 1700.39c-31.078-55.405-77.755-91.055-96.476-176.86-17.173-78.716-60.242-85.998-81.129-68.987-25.046 20.402-16.26 112.173 177.605 245.847z" fill="#232323"/><path d="M401.817 1703.39a2.995 2.995 0 0 1-1.702-.53c-65.55-45.198-115.329-89.231-147.953-130.876-32.635-41.658-40.304-70.903-40.992-88.103-.564-14.104 3.396-25.349 11.148-31.664 10.044-8.179 23.669-10.396 36.448-5.93 30.89 10.797 44.276 52.628 49.507 76.603 12.645 57.959 38.275 92.915 63.062 126.721 11.905 16.237 23.149 31.573 33.099 49.312a3 3 0 0 1-2.617 4.467zm-156.208-253.365c-7.115 0-13.968 2.338-19.501 6.845-6.253 5.094-9.429 14.602-8.943 26.772.922 23.062 15.028 53.123 39.72 84.642 30.341 38.729 75.806 79.629 135.25 121.685-7.948-12.682-16.601-24.483-25.639-36.81-25.156-34.31-51.169-69.788-64.085-128.989-11.563-53.002-33.548-67.997-45.624-72.218-3.697-1.292-7.474-1.927-11.178-1.927z" fill="#232323"/><path d="M373.582 1707.058c-18.335 10.503-127.372 62.94-127.409 62.948l-64.467-73.689 13.652-45.312c.306-.157 40.51-35.931 41.322-36.416 2.218-1.282 102.534-103.046 102.534-103.046s28.907 113.534 34.368 195.515z" fill="#fff"/><path d="M246.172 1773.006a3.002 3.002 0 0 1-2.258-1.024l-64.467-73.688a3 3 0 0 1-.615-2.841l13.652-45.312a3.001 3.001 0 0 1 1.048-1.516c.762-.639 7.653-6.742 14.943-13.198 24.691-21.871 26.134-23.095 26.669-23.414-.021.012-.113.062-.226.153 3.148-2.529 62.819-62.82 102.159-102.729a3.002 3.002 0 0 1 5.044 1.366c.073.284 7.335 28.895 15.168 67.152 7.235 35.338 16.454 86.386 19.286 128.902a3.002 3.002 0 0 1-1.502 2.803c-7.672 4.394-31.473 16.339-70.742 35.502-.564.276-56.637 27.588-57.541 27.778a2.944 2.944 0 0 1-.618.066zm-61.115-77.413 61.872 70.722c14.587-7.021 103.228-49.78 123.53-60.946-2.952-41.79-11.953-91.554-19.042-126.177-5.861-28.627-11.399-51.826-13.826-61.729-36.961 37.485-94.37 95.562-99.152 99.53l.012.017c-1.121.873-15.5 13.609-25.999 22.909-9.324 8.259-12.954 11.474-14.472 12.779z" fill="#232323"/><path d="M325.203 1731.599c-.718.3-79.269 41.325-79.301 41.333l-64.197-76.615 20.057-52.273c.306-.158 34.102-28.97 34.915-29.455z" fill="#d9c6f4"/><g clip-path="url(#g)"><path d="M304.585 1746.85a5.795 5.795 0 0 1-4.673-2.359l-84.545-114.815a5.797 5.797 0 1 1 9.337-6.875l84.545 114.813a5.797 5.797 0 0 1-4.663 9.233z" fill="#fff"/></g><path d="M246.172 1773.006a3.002 3.002 0 0 1-2.258-1.024l-64.467-73.688a3 3 0 0 1-.615-2.841l13.652-45.312a3.001 3.001 0 0 1 1.048-1.516c.762-.639 7.653-6.742 14.943-13.198 24.691-21.871 26.134-23.095 26.669-23.414-.021.012-.113.062-.226.153 3.148-2.529 62.819-62.82 102.159-102.729a3.002 3.002 0 0 1 5.044 1.366c.073.284 7.335 28.895 15.168 67.152 7.235 35.338 16.454 86.386 19.286 128.902a3.002 3.002 0 0 1-1.502 2.803c-7.672 4.394-31.473 16.339-70.742 35.502-.564.276-56.637 27.588-57.541 27.778a2.944 2.944 0 0 1-.618.066zm-61.115-77.413 61.872 70.722c14.587-7.021 103.228-49.78 123.53-60.946-2.952-41.79-11.953-91.554-19.042-126.177-5.861-28.627-11.399-51.826-13.826-61.729-36.961 37.485-94.37 95.562-99.152 99.53l.012.017c-1.121.873-15.5 13.609-25.999 22.909-9.324 8.259-12.954 11.474-14.472 12.779z" fill="#232323"/><path d="M643.51 1742.73c-55.117-.276-109.473-11.461-203.121-89.574-47.848-39.909-92.146-44.463-100.176-9.612-12.773 55.45 67.904 127.719 303.297 99.186z" fill="#232323"/><path d="M544.502 1752.189c-34.902 0-66.336-2.821-94.036-8.462-43.975-8.956-77.427-25.039-96.74-46.51-14.865-16.527-20.703-35.828-16.437-54.348 2.781-12.068 9.814-20.319 20.341-23.861 20.747-6.981 52.404 4.922 84.68 31.844 43.178 36.016 80.854 60.053 115.182 73.486 34.126 13.354 62.64 15.274 86.033 15.392a3 3 0 0 1 .346 5.978c-35.65 4.322-68.837 6.481-99.369 6.481zM370.371 1623.06c-3.933 0-7.563.537-10.827 1.635-8.567 2.883-14.087 9.451-16.407 19.522-3.814 16.559 1.531 33.956 15.052 48.987 18.526 20.597 78.813 64.5 249.044 50.246-15.654-2.109-32.933-6.093-51.926-13.525-34.938-13.672-73.156-38.03-116.838-74.466-24.871-20.742-49.766-32.399-68.098-32.399z" fill="#232323"/><path d="M646.045 1733.531c-1.694 16.733-52.915 131.791-52.915 131.791l-64.964 4.257-55.674-51.012c3.362-10.975 13.596-150.335 21.605-180.301 10.684-39.982 156.465 50.653 151.948 95.265z" fill="#fff"/><path d="M528.165 1872.579a2.998 2.998 0 0 1-2.027-.788l-55.674-51.013a3 3 0 0 1-.842-3.091c1.263-4.121 3.89-30.96 6.671-59.376 4.477-45.735 10.048-102.654 14.904-120.82 1.912-7.155 8.421-14.905 28.564-11.224 22.011 4.029 54.462 20.863 82.671 42.888 14.809 11.562 48.993 41.009 46.596 64.678-1.723 17.017-51.06 127.992-53.159 132.708a2.996 2.996 0 0 1-2.544 1.773l-64.964 4.258c-.065.005-.13.007-.196.007zm-52.356-55.041 53.439 48.964 61.877-4.056c17.833-40.129 50.651-116.537 51.935-129.217 3.131-30.919-78.866-92.729-124.378-101.06-12.558-2.302-19.855.012-21.687 6.87-4.728 17.691-10.273 74.339-14.729 119.856-3.13 31.971-5.095 51.674-6.457 58.643zm117.321 47.783h.01z" fill="#232323"/><path d="m629.786 1779.778-36.076 85.543-65.544 4.257-56.254-45.824s6.432-60.074 6.658-60.894z" fill="#d9c6f4"/><g clip-path="url(#h)"><path d="M646.306 1812.119c-.202 0-.403-.01-.604-.03l-174.387-18.086c-3.185-.33-5.499-3.179-5.168-6.364s3.179-5.499 6.364-5.168l174.387 18.086a5.797 5.797 0 0 1-.592 11.562z" fill="#fff"/></g><path d="M528.165 1872.579a2.998 2.998 0 0 1-2.027-.788l-55.674-51.013a3 3 0 0 1-.842-3.091c1.263-4.121 3.89-30.96 6.671-59.376 4.477-45.735 10.048-102.654 14.904-120.82 1.912-7.155 8.421-14.905 28.564-11.224 22.011 4.029 54.462 20.863 82.671 42.888 14.809 11.562 48.993 41.009 46.596 64.678-1.723 17.017-51.06 127.992-53.159 132.708a2.996 2.996 0 0 1-2.544 1.773l-64.964 4.258c-.065.005-.13.007-.196.007zm-52.356-55.041 53.439 48.964 61.877-4.056c17.833-40.129 50.651-116.537 51.935-129.217 3.131-30.919-78.866-92.729-124.378-101.06-12.558-2.302-19.855.012-21.687 6.87-4.728 17.691-10.273 74.339-14.729 119.856-3.13 31.971-5.095 51.674-6.457 58.643zm117.321 47.783h.01z" fill="#232323"/><path d="M779.29 999.632c2.069 63.973 1.978 120.246 1.856 177.219-.26 121.505 1.869 176.358-8.686 226.302-20.426 96.649-69.957 130.352-82.525 146.617-11.723 64.774-19.723 114.774-44.723 197.774-86.809 7.978-152.508-44.361-203.559-86.943-47.85-39.908-94.925-51.273-104.886-15.548 4.29-22.857 10.248-46.224 14.795-58.876-24.263-14.05-38.306-30.901-55.213-74.816-25.068-65.11-62.837-68.851-77.128-56.276 36.251-32.986 165.456-64.403 198.811-61.947 29.236-118.727 16.136-190.711-14.983-290.605-34.855-111.89-4.376-156.266-21.178-156.266z" fill="#00676c"/><g clip-path="url(#i)"><path d="M346.212 1594.545a3 3 0 0 1-2.795-4.088c1.592-4.097 3.315-8.504 5.143-13.183 21.268-54.417 56.863-145.492 69.704-214.281a3 3 0 1 1 5.898 1.102c-12.944 69.345-48.669 160.75-70.013 215.363-1.827 4.676-3.548 9.079-5.139 13.173a3.003 3.003 0 0 1-2.798 1.914z" fill="#fff"/></g><path d="M469.416 1815.878s-50.026 128.495-63.227 199.368c0 0 235.451 5.835 313.613-.316 42.418-3.339 62.81-19.144 72.581-30.583 0 0-.018-.044-.052-.142-.027-.071-.062-.176-.114-.3a.007.007 0 0 0-.007-.009h-.001c-2.237-5.391-25.772-58.583-102.545-97.668-11.97-6.087-50.432-23.104-94.803-28.577-30.362-3.745-56.214-2.524-75.649-9.103-24.678-8.354-35.891-33.121-49.796-32.67z" fill="#fff"/><path d="M598.936 2020.729c-91.001 0-191.283-2.446-192.821-2.484a3.001 3.001 0 0 1-2.875-3.548c13.101-70.336 62.88-198.619 63.381-199.907a2.999 2.999 0 0 1 2.698-1.909c8.03-.283 14.725 6.041 22.473 13.34 7.673 7.228 16.37 15.42 28.381 19.485 12.043 4.077 26.775 5.077 43.833 6.235 9.915.673 20.168 1.369 31.221 2.732 50.045 6.173 91.261 26.574 95.796 28.881 76.762 39.078 101.074 92.323 103.892 99.038a6.92 6.92 0 0 1 .212.525l-.014.007c.012.044.023.089.033.134l.029-.011c.39 1.025.202 2.213-.51 3.047-19.489 22.818-51.339 29.794-74.627 31.627-26.888 2.115-72.683 2.808-121.102 2.808zm-189.132-8.398c29.751.692 237.868 5.266 309.762-.393 38.587-3.037 58.905-16.689 69.323-28.164-4.421-9.895-29.061-58.461-100.587-94.873-4.438-2.257-44.781-22.227-93.809-28.273-10.89-1.344-21.059-2.034-30.893-2.701-17.476-1.187-32.569-2.212-45.351-6.538-13.25-4.484-22.854-13.532-30.572-20.802-6.003-5.654-11.281-10.626-16.261-11.559-6.346 16.515-48.663 127.855-61.612 193.303zm383.265-28.321-.698.303.772-.294z" fill="#232323"/><path d="M469.943 1813.305c9.939 2.415 16.042 7.892 22.301 14.057 30.862 37.393 77.102 18.468 130.212 33.406 55.921 15.043 109.901 42.884 147.26 87.917v.009c5.177 6.227 10.632 13.831 14.283 19.784-67.739 47.32-146.621 21.38-185.468 4.813-33.504-14.289-43.746 3.773-71.09-5.188-22.837-7.483-27.267-25.745-56.402-29.415-27.229-3.43-50.182 14.345-50.182 14.345s29.258-83.179 49.086-139.728z" fill="#232323"/><path d="M466.926 2001.583c-.263 0-.525-.002-.79-.005-19.038-.258-33.826-9.74-33.666-21.589.158-11.683 14.787-20.674 33.448-20.674.263 0 .525.002.79.005 19.038.258 33.826 9.741 33.666 21.59-.158 11.682-14.787 20.673-33.448 20.673zm-.971-36.268c-14.86 0-27.376 6.676-27.485 14.756-.111 8.2 12.596 15.302 27.747 15.507 15.162.178 28.046-6.549 28.158-14.75.111-8.201-12.596-15.303-27.747-15.508a50.58 50.58 0 0 0-.673-.005zm31.419 15.554h.01z" fill="#232323"/><path d="M446.405 1915.366c-3.561 0-5.747-.305-6.034-.348a2.499 2.499 0 0 1 .73-4.946c.225.031 22.697 3.071 45.64-12.613 5.04-3.446 9.171-6.538 12.816-9.267 14.051-10.519 21.792-16.312 49.726-19.51 1.374-.172 2.611.827 2.768 2.199s-.828 2.611-2.199 2.768c-26.59 3.044-33.51 8.225-47.298 18.546-3.685 2.759-7.862 5.885-12.99 9.391-17.489 11.955-34.442 13.78-43.159 13.78z" fill="#fff"/><path d="M586.279 1926.479a7.45 7.45 0 0 1-3.499-.872 7.493 7.493 0 0 1-3.129-10.117c.92-1.747 23.079-42.906 69.691-54.124a7.5 7.5 0 0 1 3.51 14.584c-39.871 9.595-59.742 46.178-59.938 46.546a7.511 7.511 0 0 1-6.635 3.983zm34.309 13.731a7.453 7.453 0 0 1-3.491-.868c-3.656-1.932-5.063-6.448-3.141-10.108.889-1.694 22.356-41.617 72.037-52.466a7.5 7.5 0 0 1 3.2 14.655c-42.656 9.314-61.778 44.448-61.966 44.802a7.517 7.517 0 0 1-6.639 3.985zm39.652 11.148a7.452 7.452 0 0 1-3.646-.952c-3.607-2.017-4.909-6.561-2.904-10.174.814-1.466 20.445-36.019 65.758-45.341 4.059-.841 8.023 1.777 8.858 5.834a7.499 7.499 0 0 1-5.835 8.857c-38.347 7.89-55.507 37.648-55.676 37.948a7.518 7.518 0 0 1-6.555 3.828z" fill="#d9c6f4"/><path d="M191.651 1646.865S63.716 1698.307 3 1737.175c0 0 156.853 175.693 214.822 228.484 31.46 28.648 56.939 32.704 71.967 32.002 0 0 .02-.043.067-.135.033-.068.086-.165.141-.288.004-.003.005-.008.002-.011l-.001-.001c2.401-5.32 25.087-58.88 1.057-141.609-3.752-12.894-17.66-52.586-44.03-88.689-18.045-24.704-36.624-42.72-45.125-61.395-10.795-23.712-.406-48.836-10.249-58.668z" fill="#fff"/><path d="M286.702 2000.734c-28.675 0-54.251-17.694-70.9-32.856-57.419-52.29-213.47-226.946-215.04-228.704a2.998 2.998 0 0 1 .621-4.524c60.256-38.574 187.867-90.052 189.149-90.567a2.996 2.996 0 0 1 3.239.661c5.687 5.681 5.669 14.873 5.648 25.516-.021 10.542-.044 22.489 5.21 34.03 5.268 11.572 14.619 23 25.447 36.231 6.294 7.691 12.802 15.645 19.37 24.638 29.741 40.719 43.066 84.734 44.488 89.62 24.059 82.829 1.774 137.025-1.147 143.556a7.817 7.817 0 0 1-.223.481l-.047.093a3.038 3.038 0 0 1-2.591 1.751 70.94 70.94 0 0 1-3.224.074zM7.599 1737.817c19.853 22.17 158.922 177.067 212.242 225.625 15.852 14.435 40.1 31.292 66.86 31.292.371 0 .74-.004 1.112-.01 4.189-9.99 22.749-61.192.36-138.271-1.391-4.78-14.434-47.864-43.572-87.756-6.472-8.86-12.927-16.748-19.169-24.377-11.093-13.556-20.673-25.264-26.264-37.545-5.796-12.731-5.77-25.926-5.75-36.528.016-8.247.03-15.497-2.698-19.768-16.383 6.672-126.533 51.997-183.121 87.338z" fill="#232323"/><path d="M193.887 1645.489c5.04 8.9 5.222 17.099 5.009 25.881-6.151 48.092 39.29 68.863 64.738 117.814 27.294 51.074 43.927 109.489 36.651 167.546l-.007.006c-.998 8.036-2.812 17.217-4.654 23.953-80.858-17.019-115.917-92.293-130.418-131.958-12.505-34.21-32.685-29.32-44.861-55.392-10.17-21.774.117-37.5-17.143-61.258-16.131-22.204-44.798-26.779-44.798-26.779s80.678-35.579 135.483-59.813z" fill="#232323"/><path d="M81.675 1786.234c-8.594 0-19.061-5.246-27.689-14.694-5.929-6.493-10.033-14.002-11.557-21.142-1.645-7.711-.131-14.168 4.264-18.182 4.395-4.012 10.962-4.938 18.493-2.6 6.972 2.164 14.078 6.932 20.007 13.426 5.929 6.492 10.034 14.001 11.557 21.141 1.645 7.711.131 14.168-4.265 18.182-2.868 2.62-6.617 3.869-10.81 3.869zm-24.206-51.88c-2.758 0-5.062.771-6.73 2.293-2.758 2.519-3.625 6.957-2.443 12.499 1.304 6.113 4.898 12.629 10.119 18.347 10.218 11.191 23.968 15.971 30.024 10.44 2.758-2.518 3.625-6.956 2.443-12.498-1.304-6.113-4.898-12.629-10.12-18.347-5.222-5.719-11.385-9.889-17.355-11.741-2.138-.664-4.135-.993-5.938-.993z" fill="#232323"/><path d="M206.174 1745.645a2.484 2.484 0 0 1-1.615-.593c-20.414-17.309-28.927-18.811-45.888-21.803-4.533-.8-9.671-1.706-15.737-3.047-29.133-6.439-42.884-25.858-43.455-26.682a2.5 2.5 0 0 1 4.107-2.851c.184.262 13.346 18.665 40.427 24.65 5.962 1.318 11.043 2.215 15.527 3.006 17.286 3.05 26.807 4.729 48.253 22.912a2.5 2.5 0 0 1-1.619 4.408z" fill="#fff"/><path d="M277.47 1822.971a7.466 7.466 0 0 1-4.11-1.231c-34.279-22.51-74.553-11.969-74.956-11.86-3.992 1.082-8.114-1.271-9.203-5.262a7.495 7.495 0 0 1 5.238-9.205c1.904-.523 47.081-12.526 87.156 13.788a7.501 7.501 0 0 1-4.125 13.77zm13.716 37.177a7.466 7.466 0 0 1-4.242-1.32c-35.98-24.732-74.685-14.636-75.072-14.533-3.991 1.082-8.113-1.267-9.206-5.254s1.238-8.104 5.222-9.208c1.845-.51 45.646-12.173 87.552 16.634a7.5 7.5 0 0 1-4.254 13.681zm9.601 36.745a7.46 7.46 0 0 1-4.316-1.372c-31.992-22.565-65.435-14.718-65.77-14.636-4.013.983-8.079-1.461-9.076-5.472-.997-4.01 1.425-8.068 5.432-9.079 1.626-.409 40.256-9.735 78.06 16.929a7.5 7.5 0 0 1-4.33 13.63z" fill="#d9c6f4"/><path clip-path="url(#j)" d="M690.216 1569.545a3.001 3.001 0 0 1-2.956-3.536c12.701-70.016 33.958-187.201 32.597-335.771-.583-63.571-9.285-251.555-9.373-253.446a3.001 3.001 0 0 1 2.858-3.136c1.65-.085 3.059 1.203 3.136 2.857.088 1.893 8.796 189.987 9.379 253.67 1.366 149.137-19.955 266.671-32.693 336.896a3 3 0 0 1-2.948 2.466z" fill="#fff"/><path d="m873.213 627.544 25.491 86.455c87.83-91.284 180.766-162.383 252.661-199.48 117.971-60.872 200.374-68.457 195.35-53.092-1.663 5.086-6.739 10.912-23.16 22.785 20.032-8.057 66.507-9.773 7.149 27.596 0 0 59.745-7.128-15.83 32.702 26.553-5.716 25.415 7.128-48.511 51.021-49.021 29.106-75.681 57.233-124.192 112.702-116.371 133.063-197.642 275.032-361.007 229.11-152.608-42.899-134.917-242.719-127.957-213.895z" fill="#fff"/><path d="M841.673 949.235c-19.682 0-40.023-3.018-61.321-9.005-125.86-35.379-137.716-175.871-134.001-211.558.818-7.857 2.212-10.852 5.143-11.048 1.604-.105 2.653.759 3.355 1.835l217.165-94.666a2.999 2.999 0 0 1 4.076 1.901l24.034 81.515c83.175-85.803 174.026-157.225 249.865-196.357 59.76-30.836 105.521-45.715 133.388-52.767 33.171-8.395 57.157-9.846 64.161-3.885 2.172 1.849 2.911 4.457 2.028 7.157-1.292 3.95-4.102 8.167-12.304 15.075 10.599-1.766 21.836-1.439 24.826 4.416 3.115 6.1-3.443 14.587-20.555 26.425 6.431.217 12.908 1.615 14.319 6.146 1.385 4.449-1.146 11.063-27.557 26.163 2.61.561 4.255 1.805 5.016 3.746 1.759 4.482-2.337 10.314-13.696 19.501-11.018 8.911-28.419 20.444-51.722 34.28-47.893 28.437-74.4 55.994-123.465 112.097-17.632 20.161-34.549 40.639-50.909 60.441-45.832 55.479-89.123 107.88-138.17 141.226-36.827 25.041-73.905 37.362-113.676 37.362zM652.67 726.399c-1.989 13.306-1.689 57.928 16.557 103.463 9.772 24.389 23.127 45.278 39.692 62.087 19.872 20.163 44.451 34.465 73.057 42.506 136.693 38.422 215.578-57.062 306.92-167.628 16.386-19.835 33.331-40.345 51.018-60.569 49.503-56.604 76.28-84.428 124.918-113.307 57.637-34.223 62.439-44.62 62.826-46.318-.732-.312-3.576-1.037-12.153.81a3.001 3.001 0 0 1-2.03-5.587c37.106-19.556 36.682-25.423 36.646-25.663-.839-1.547-9.536-2.536-19.063-1.406a2.991 2.991 0 0 1-3.182-1.979 3 3 0 0 1 1.229-3.539c30.109-18.954 27.668-24.636 27.64-24.69-1.753-3.434-19.26-2.734-32.071 2.417a3 3 0 0 1-2.877-5.214c17.386-12.571 20.881-17.661 22.066-21.288.123-.375.119-.439-.214-.723-3.549-3.021-22.136-4.146-58.8 5.132-27.562 6.975-72.854 21.707-132.108 52.282-76.367 39.405-168.172 111.899-251.876 198.895a3 3 0 0 1-5.039-1.231l-24.53-83.195L654.405 726.2a3.02 3.02 0 0 1-1.735.199zm-2.84-3.682z" fill="#232323"/><path d="M800.115 723.029c25.401-45.192 73.395-94.914 73.395-94.914s-68.512-230.618-156.49-248.751l72.793 372.092s6.002-20.776 10.302-28.427z" fill="#fff"/><path d="M789.814 754.456a3 3 0 0 1-2.945-2.424L714.076 379.94a3 3 0 0 1 3.549-3.515c37.463 7.722 75.598 52.415 113.347 132.839 27.898 59.438 45.241 117.418 45.413 117.996a3.001 3.001 0 0 1-.717 2.938c-.478.495-48.023 49.973-72.938 94.301l-2.615-1.47 2.615 1.47c-4.081 7.261-9.977 27.585-10.036 27.79a2.998 2.998 0 0 1-2.88 2.167zm-68.945-371.043 69.61 355.822c2.086-6.295 4.749-13.634 7.021-17.676 23.034-40.98 64.949-86.117 72.63-94.244-6.282-20.372-69.957-220.717-149.261-243.902zm556.383 122.106a3 3 0 0 1-1.243-5.733c1.356-.616 33.472-15.168 55.452-21.163a2.997 2.997 0 0 1 3.684 2.105 3 3 0 0 1-2.105 3.684c-21.511 5.866-54.22 20.688-54.548 20.837-.403.183-.825.27-1.24.27zm.348 27.991a3.001 3.001 0 0 1-1.315-5.699c.25-.121 25.28-12.214 54.261-19.209a3 3 0 0 1 1.408 5.832c-28.326 6.838-52.8 18.654-53.044 18.773-.423.206-.87.303-1.31.303zm4.742 24.851a3 3 0 0 1-1.126-5.782c.698-.282 17.287-6.966 33.307-10.971a2.998 2.998 0 0 1 3.638 2.183 3 3 0 0 1-2.183 3.638c-15.602 3.901-32.344 10.645-32.511 10.713-.37.148-.751.219-1.125.219zM869.086 747.636a3 3 0 0 1-2.216-5.021c.827-.907 20.384-22.337 31.362-32.316a2.999 2.999 0 1 1 4.036 4.439c-10.769 9.79-30.763 31.699-30.964 31.92a2.997 2.997 0 0 1-2.218.978zM527.48 1033.563h-17.658s-17.136-55.594-12.426-97.994c.696-6.305 27.165-4.296 27.165-4.296z" fill="#232323"/><path d="M527.48 1036.563h-17.658a3 3 0 0 1-2.867-2.116c-.043-.141-4.375-14.276-8.058-33.414-3.411-17.72-6.957-43.52-4.482-65.796.635-5.758 9.257-6.861 16.697-7.179 6.805-.288 13.399.201 13.677.223a3 3 0 0 1 2.772 2.905l2.918 102.291a3 3 0 0 1-2.999 3.086zm-15.412-6h12.325l-2.752-96.469c-10.009-.51-19.634.372-21.287 2.019-3.999 36.649 8.708 83.959 11.714 94.45z" fill="#232323"/><path d="M560.429 310.071s117.372 46.647 148.282 27.238c-3.574 22.4 15.581 47.315 29.601 73.347 52.129 107.206 125.717 330.095 63.274 658.587-11.203-23.133-120.02-34.196-274.106-35.681l-13.686-53.338-33.315 52.35c-38.155-1.011-110.33-4.561-127.291 9.573 0-81.983 19.725-546.447 207.241-732.076z" fill="#fff"/><g fill="#232323"><path d="M801.585 1072.244a2.999 2.999 0 0 1-2.699-1.692c-6.442-13.302-53.599-20.928-81.135-24.289-46.427-5.667-110.453-8.931-190.3-9.699a3.001 3.001 0 0 1-2.877-2.255l-11.965-46.634-29.598 46.51a2.996 2.996 0 0 1-2.61 1.389c-3.31-.088-6.876-.194-10.64-.308-37.414-1.119-100.034-2.994-114.651 9.186a3 3 0 0 1-4.921-2.305c0-6.201.377-153.879 33.354-327.729 16.097-84.861 37.162-160.321 62.609-224.284 30.989-77.893 68.728-139.191 112.166-182.193a3 3 0 0 1 3.219-.656c.292.116 29.614 11.723 62.292 20.809 53.805 14.958 74.99 11.89 83.287 6.677a3.001 3.001 0 0 1 4.558 3.014c-2.64 16.543 8.255 35.128 19.789 54.806 3.178 5.421 6.463 11.025 9.491 16.646l.057.111c24.457 50.297 57.299 134.006 74.868 247.163 20.053 129.151 16.236 268.204-11.344 413.296a2.999 2.999 0 0 1-2.95 2.437zm-271.771-41.657c79.002.811 142.463 4.08 188.664 9.72 24.517 2.993 44.063 6.674 58.094 10.941 10.84 3.296 18.533 6.959 23.258 11.095 26.367-142.126 29.774-278.323 10.119-404.914-17.448-112.379-50.033-195.47-74.307-245.402-2.968-5.508-6.215-11.047-9.355-16.404-10.926-18.64-21.304-36.344-21.01-53.354-15.206 5.532-43.1 2.717-83.101-8.409-28.274-7.864-54.048-17.593-61.014-20.283-42.269 42.348-79.082 102.482-109.434 178.774-25.306 63.608-46.263 138.698-62.289 223.185-29.783 157.013-32.891 292.543-33.212 321.229 21.461-10.256 76.348-8.615 113.715-7.495 3.121.094 6.106.183 8.921.261l32.402-50.915a3 3 0 0 1 5.436.865z"/><circle cx="692.171" cy="508.553" transform="matrix(.1332 -.9911 .9911 .1332 95.94 1126.8055)" r="4.24"/><path d="M692.176 515.794c-.32 0-.643-.021-.968-.064-3.957-.533-6.743-4.185-6.211-8.141.531-3.956 4.18-6.742 8.139-6.211a7.195 7.195 0 0 1 4.792 2.784 7.193 7.193 0 0 1 1.42 5.355c-.489 3.631-3.605 6.277-7.172 6.277zm-.005-8.481a1.241 1.241 0 0 0-.164 2.469 1.232 1.232 0 0 0 1.393-1.063 1.238 1.238 0 0 0-1.229-1.406z"/><circle cx="686.753" cy="477.885" transform="matrix(.1332 -.9911 .9911 .1332 121.6387 1094.8534)" r="4.24"/><path d="M686.758 485.126c-.32 0-.643-.021-.968-.064-3.957-.533-6.743-4.185-6.211-8.141a7.194 7.194 0 0 1 2.784-4.791 7.187 7.187 0 0 1 5.356-1.42 7.195 7.195 0 0 1 4.792 2.784 7.188 7.188 0 0 1 1.419 5.355c-.489 3.631-3.605 6.277-7.172 6.277zm-.009-8.481a1.237 1.237 0 0 0-1.224 1.074 1.242 1.242 0 0 0 1.064 1.395 1.235 1.235 0 0 0 1.393-1.063 1.232 1.232 0 0 0-.243-.917 1.228 1.228 0 0 0-.82-.477h-.001a1.11 1.11 0 0 0-.169-.012z"/><path clip-path="url(#k)" d="M663.79 445.168c-19.933 0-41.039-28.638-63.26-58.786-17.495-23.737-35.585-48.282-52.708-57.95a3 3 0 1 1 2.95-5.225c18.24 10.3 36.718 35.37 54.587 59.614 20.436 27.727 41.514 56.321 58.498 56.324 1.494 0 2.954-.221 4.382-.684 3.234-1.047 5.64-3.285 7.355-6.841 4.595-9.526 3.846-27.824-2.167-52.918-4.631-19.323-10.804-35.875-10.866-36.04a2.999 2.999 0 0 1 1.756-3.861 2.997 2.997 0 0 1 3.862 1.755c1.036 2.763 25.225 67.95 12.82 93.67-2.431 5.041-6.102 8.387-10.911 9.944a20.33 20.33 0 0 1-6.298.998z"/><path clip-path="url(#k)" d="M723.976 440.872a9.049 9.049 0 0 1-1.901-.208c-7.056-1.511-16.77-11.787-26.651-28.191-10.807-17.941-20.449-41.028-27.15-65.007a3 3 0 1 1 5.779-1.615c15.298 54.745 40.213 87.005 49.279 88.946 1.098.234 1.389-.112 1.6-.366.823-.989 7.313-11.431-18.077-72.696a3 3 0 0 1 5.543-2.297c22.739 54.867 21.874 73.154 17.145 78.833-1.425 1.709-3.358 2.601-5.567 2.601z"/><path clip-path="url(#k)" d="M685.805 540.703a3 3 0 0 1-.126-5.997c8.02-.345 13.616-2.731 17.107-7.298 8.21-10.74 3.407-31.963-.099-47.459-.617-2.725-1.199-5.3-1.678-7.659L665.35 333.054a3 3 0 0 1 5.813-1.488l35.678 139.311c.013.05.024.1.034.149.468 2.312 1.049 4.881 1.664 7.6 3.768 16.651 8.929 39.456-.986 52.427-4.573 5.982-11.846 9.229-21.616 9.648l-.132.002z"/><path d="M782.597 32.498a40.629 40.629 0 0 0-36.97-.431C733.792-9.067 679.5-2.941 671.522 28.002c-36.914-29.347-83.709 11.71-69.009 46.262 5.398 12.685 13.9 34.596 7.807 55.805 18.133 8.667 51.734 58.679 51.734 58.679s64.349-85.26 96.918-87.514c51.21-3.55 48.068-55.199 23.625-68.736z"/><path d="m662.055 191.748-.083-.001a3.002 3.002 0 0 1-2.408-1.326c-.084-.124-8.479-12.592-18.959-25.938-13.663-17.398-24.582-28.362-31.578-31.706a3.001 3.001 0 0 1-1.59-3.535c6.129-21.337-3.551-44.088-7.685-53.803-7.267-17.08-.722-37.855 15.916-50.521 13.274-10.106 34.168-15.496 54.313-1.775C675.538 9.557 690.206.243 707.177.006c14.808-.22 32.784 7.114 40.277 27.961 11.79-4.72 25.209-4.08 36.539 1.878l.057.031c13.84 7.664 21.443 26.219 17.685 43.159-1.913 8.624-9.889 28.929-42.556 31.193-12.54.867-32.822 15.951-58.654 43.621-19.826 21.236-35.917 42.494-36.077 42.707a3 3 0 0 1-2.393 1.192zm-48.234-63.189c16.142 9.713 40.674 43.975 48.372 55.081 12.463-16.052 66.393-83.311 96.572-85.399 20.159-1.397 33.687-11.059 37.113-26.507 3.149-14.197-3.309-30.264-14.707-36.596-10.651-5.588-23.437-5.731-34.211-.384a3.003 3.003 0 0 1-4.217-1.858C736.956 12.785 720.62 5.803 707.26 6.003c-15.936.222-29.438 9.576-32.834 22.747a3.003 3.003 0 0 1-4.772 1.6c-18.472-14.687-38.122-9.97-50.352-.659-14.451 11.001-20.22 28.847-14.03 43.397 6.565 15.426 13.355 35.508 8.549 55.471z"/></g><path d="M804.899 224.067c.955 11.308-5.017 23.101-16.877 29.817-30.878 17.49-71.558 8.19-71.558 8.19s-9.94 63.02-4.235 99.571c0 0-54.127 17.667-151.8-51.411 26.275-32.321 39.312-66.023 50.17-99.868-21.837-2.846-46.306-24.829-41.063-54.423 2.991-16.882 20.972-28.432 38.377-25.754 17.882 2.75 29.716 17.372 43.49 32.208 15.571 16.773 20.176 2.71 26.304-15.01 3.937-11.384 8.492-24.277 16.992-31.479 19.208-16.289 64.271-14.685 64.271-14.685s.243 5.867 1.062 13.227c1.084 9.736 3.196 22.069 7.109 26.895 6.879 8.467 13.622 6.902 13.922 12.507.257 4.806-5.049 10.712-8.124 13.286 2.557 32.801 29.742 30.544 31.96 56.929z" fill="#fff"/><path d="M694.073 366.673c-5.884 0-13.096-.475-21.602-1.868-43.114-7.065-85.668-32.243-113.775-52.121a3 3 0 0 1-.596-4.342c23.843-29.328 36.834-59.558 48.581-95.61-12.055-2.592-23.883-10.297-31.517-20.703-5.537-7.548-11.52-20.025-8.582-36.608 3.237-18.27 22.373-31.182 41.787-28.195 17.254 2.653 28.998 15.453 41.431 29.006 1.255 1.367 2.52 2.746 3.802 4.127 4.406 4.745 7.983 6.99 10.351 6.492 4.156-.876 7.483-10.503 10.701-19.812l.218-.63c3.842-11.11 8.625-24.937 17.888-32.788 19.865-16.845 64.43-15.463 66.317-15.394a3 3 0 0 1 2.891 2.874c.002.058.249 5.858 1.046 13.02 1.425 12.798 3.779 22.033 6.458 25.338 2.949 3.63 5.773 5.123 8.265 6.439 2.848 1.506 6.077 3.212 6.323 7.796.291 5.441-4.439 11.358-7.995 14.684 1.578 15.088 8.71 21.639 16.248 28.562 7.094 6.517 14.43 13.256 15.575 26.878 1.107 13.105-5.939 25.628-18.388 32.679-26.841 15.204-60.161 10.966-70.53 9.13-1.873 13.053-8.632 64.457-3.778 95.558a2.999 2.999 0 0 1-2.033 3.314c-.392.126-6.873 2.174-19.086 2.174zM564.77 309.616c27.407 19.085 67.593 42.379 108.104 49.173 18.839 3.161 31.087 1.565 35.997.583-2.004-15.182-1.888-35.841.347-61.479 1.76-20.194 4.257-36.127 4.282-36.286a3 3 0 0 1 3.631-2.457c.396.09 39.94 8.82 69.412-7.875 10.386-5.882 16.274-16.21 15.367-26.955v-.001c-.949-11.289-6.837-16.698-13.655-22.961-7.905-7.261-16.864-15.491-18.304-33.984a3.003 3.003 0 0 1 1.065-2.534c3.591-3.006 7.211-7.877 7.054-10.825-.054-1.009-.291-1.309-3.135-2.812-2.7-1.427-6.398-3.382-10.12-7.963-3.534-4.359-6.146-13.933-7.762-28.455a227.003 227.003 0 0 1-.923-10.598c-9.913-.006-44.033.905-59.489 14.011-8.01 6.788-12.494 19.754-16.097 30.172l-.217.629c-4.108 11.884-7.655 22.147-15.134 23.724-4.736.993-9.814-1.634-15.986-8.281-1.29-1.39-2.563-2.777-3.826-4.153-12.208-13.307-22.751-24.799-37.922-27.132-15.99-2.462-32.331 8.434-34.967 23.312-2.568 14.494 2.667 25.408 7.512 32.013 7.443 10.146 19.315 17.393 30.984 18.913a3.001 3.001 0 0 1 2.469 3.89c-11.911 37.119-24.829 68.181-48.687 98.331z" fill="#232323"/><path d="M716.465 262.078s-24.932-7.971-38.808-26.37c-5.38 3.203-10.138 36.233 19.32 50.175 7.087 3.353 11.944 3.903 15.222 2.762 3.051-25.127 4.266-26.567 4.266-26.567z" fill="#232323"/><path d="M708.707 292.192c-3.632 0-7.933-1.193-13.013-3.597-21.474-10.165-24.643-29.142-25.008-36.829-.343-7.213 1.212-16.121 5.437-18.637a3 3 0 0 1 3.93.771c13.117 17.394 37.088 25.243 37.328 25.321a3 3 0 0 1 1.757 4.218c-.215.609-1.431 4.73-3.961 25.565a2.999 2.999 0 0 1-1.991 2.472c-1.366.478-2.856.716-4.479.716zm-30.79-51.412c-.909 2.714-1.71 7.403-1.026 13.29.872 7.504 4.808 21.263 21.369 29.102 5.476 2.591 8.995 3.157 11.222 2.984 1.55-12.527 2.607-18.884 3.343-22.191-6.519-2.481-23.194-9.771-34.908-23.185zm40.844 23.229a.018.018 0 0 1-.004.005l.004-.005zm.003-.003-.003.004.003-.004zm.004-.004-.003.003.003-.003zm.003-.004-.002.002.002-.002zm.003-.004s0 .001 0 0zm-19.996-137.486.038-1.827c.028-.564.073-1.117.15-1.659.139-1.077.355-2.143.645-3.19a27.068 27.068 0 0 1 2.454-6.009 28.89 28.89 0 0 1 9.123-9.976 26.294 26.294 0 0 1 6.425-3.231 23.898 23.898 0 0 1 7.158-1.261 20.978 20.978 0 0 1 7.036 1.039 16.45 16.45 0 0 1 6.044 3.42 5.506 5.506 0 0 1-.872 8.825l-.895.526c-1.724 1.013-3.186 1.642-4.496 2.364-1.318.649-2.453 1.324-3.517 1.888l-5.974 3.347c-2.029 1.152-4.158 2.581-6.551 4.188l-3.764 2.578c-.651.457-1.341.913-2.046 1.378a29.87 29.87 0 0 1-1.081.689 5.022 5.022 0 0 1-1.09.574l-3.729.664a4.3 4.3 0 0 1-4.987-3.479 4.559 4.559 0 0 1-.071-.848zm22.598 16.025c4.822-1.989 16.507-6.497 26.665-14.266a3.227 3.227 0 0 1 4.526.594l.001.001.02.028c2.788 3.695 6.236 10.457-1.364 14.865-9.337 5.417-26.04 5.25-30.337 1.545a1.656 1.656 0 0 1 .49-2.768zm43.476 55.204a14.043 14.043 0 0 1-5.007 3.287 18.973 18.973 0 0 1-5.734 1.261 19.889 19.889 0 0 1-16.184-6.11 19.583 19.583 0 0 1-3.401-4.897 16.542 16.542 0 0 1-1.28-11.565 2.134 2.134 0 0 1 4.19.486l.005.118a16.314 16.314 0 0 0 5.133 11.249 16.063 16.063 0 0 0 3.329 2.477 18.402 18.402 0 0 0 8.071 2.145c2.837.176 5.668-.42 8.194-1.724l.106-.058a2.133 2.133 0 0 1 2.578 3.331zm-133.839-9.5a3.001 3.001 0 0 1-2.827-1.996c-11.253-31.644-33.501-28.995-33.724-28.958a3.001 3.001 0 0 1-.812-5.945c.271-.034 27.32-3.293 40.189 32.894a2.999 2.999 0 0 1-2.826 4.005zm-13.294 25.732c-4.943 0-8.533-.408-8.857-.446a2.999 2.999 0 0 1-2.628-3.328 3.006 3.006 0 0 1 3.328-2.631c.162.019 16.372 1.847 26.881-2.529a3 3 0 1 1 2.307 5.539c-6.637 2.763-14.88 3.395-21.031 3.395z" fill="#232323"/><path clip-path="url(#l)" d="M725.213 51.545a3 3 0 0 1-2.837-3.977c.335-.973 8.463-23.859 31.304-27.976a3 3 0 1 1 1.064 5.904c-19.417 3.499-26.625 23.819-26.696 24.024a3 3 0 0 1-2.835 2.025z" fill="#fff"/><path d="M272.223 564.97c-18.746-7.629-93.676-28.792-113.585-6.681-16.447 18.268 1.393 96.072 282.326 129.477-.001.002-55.687-76.744-168.741-122.796z" fill="#232323"/><path d="M440.966 690.765a3.01 3.01 0 0 1-.356-.021v.001c-232.836-27.686-278.223-84.518-286.929-107.667-5.85-15.555.609-24.442 2.728-26.796 22.401-24.882 103.039.25 116.945 5.909h.001c111.741 45.518 167.687 120.605 170.02 123.788a3 3 0 0 1-2.344 4.785l-.065.001zM191.311 551.442c-13.316 0-24.617 2.384-30.443 8.854-3.186 3.539-5.272 10.827-1.571 20.669 9.376 24.93 45.661 44.244 66.456 53.539 48.568 21.708 118.648 38.323 208.375 49.41-15.179-18.516-68.997-77.86-163.036-116.167h.001c-12.41-5.049-50.849-16.305-79.782-16.305z" fill="#232323"/><path d="M553.257 337.31s-110.839-56.954-288.801 185.804c-58.892 80.335-103.069 175.242-122.312 493.459-4.582 75.77-33.688 96.329-51.791 132.197-14.298 2.043-36.519 26.105-39.991 67.895-2.222 26.743 12.173 36.153 24.822 33.531 0 0 4.046 20.04 31.598 13.533 0 0 11.511 21.06 33.966 9.191 0 0 16.244 42.805 87.864-71.265 44.289-70.54 112.694-227.646 151.438-415.561 17.787-37.384 249.427-373.229 173.207-448.784z" fill="#fff"/><path d="M152.818 1283.788a17.94 17.94 0 0 1-1.79-.087c-6.121-.608-9.685-4.209-11.509-6.854-18.879 8.327-30.454-4.634-34.111-9.75-9.581 1.906-17.51.899-23.59-2.997-5.062-3.243-7.553-7.724-8.7-10.571-6.027.529-11.883-1.354-16.399-5.352-5.093-4.509-10.849-13.68-9.346-31.761 3.574-43.02 25.959-66.804 40.976-70.318 4.565-8.831 9.666-16.611 15.052-24.825 15.926-24.29 32.394-49.407 35.749-104.882 9.057-149.769 23.799-256.717 46.395-336.57 21.927-77.491 49.722-121.965 76.492-158.48 40.743-55.578 81.363-99.989 120.729-132 31.624-25.714 62.546-43.553 91.905-53.019 50.558-16.301 78.78-2.287 79.957-1.681.273.14.523.321.741.537 15.422 15.289 19.862 41.618 13.195 78.258-5.514 30.304-18.763 68.511-39.378 113.56-37.148 81.177-89.883 166.98-121.392 218.247-12.597 20.496-21.757 35.4-24.879 41.817-42.353 205.171-115.311 358.135-151.761 416.188-33.569 53.466-59.908 80.54-78.336 80.54zm-12.069-13.869a3 3 0 0 1 2.804 1.935c.079.196 2.197 5.343 8.16 5.885 9.038.829 30.72-8.179 74.358-77.68 24.32-38.735 52.582-98.235 77.539-163.245 30.644-79.823 56.06-166.73 73.502-251.327.049-.236.126-.466.229-.684 3.103-6.522 12.43-21.698 25.339-42.702 31.437-51.149 84.052-136.759 121.048-217.603 44.143-96.46 53.478-158.603 27.753-184.72-9.762-4.703-37.487-10.001-75.686 2.486-28.596 9.349-58.794 26.894-89.757 52.147-38.809 31.653-78.901 75.552-119.165 130.475-26.437 36.063-53.889 79.991-75.557 156.567-22.476 79.428-37.149 185.972-46.179 335.298-3.451 57.068-20.364 82.864-36.72 107.811-5.556 8.475-10.804 16.479-15.386 25.558a3.001 3.001 0 0 1-2.254 1.618c-5.343.763-13.927 5.827-21.994 17.753-5.976 8.834-13.504 24.231-15.431 47.421-1.012 12.176 1.597 21.684 7.344 26.772 3.752 3.321 8.811 4.625 13.879 3.573a3 3 0 0 1 3.55 2.344c.009.041 1.327 5.906 7.017 9.502 5.085 3.214 12.134 3.786 20.952 1.704a3.004 3.004 0 0 1 3.322 1.481c.412.743 10.43 18.284 29.931 7.977a3.022 3.022 0 0 1 1.402-.346z" fill="#232323"/><path d="M564.213 337.544c-29.487-35.828-190.663-77.409-407.65 223.596 21.447-32.17 163.076 32.348 276.903 136.796 88.747-122.392 200.731-284.428 130.747-360.392z" fill="#fff"/><path d="M433.466 700.936a2.995 2.995 0 0 1-2.028-.79c-99.471-91.276-216.29-149.161-258.919-144.001-6.066.732-10.412 2.729-12.936 5.937l-.586.812a3 3 0 0 1-4.93-3.418c.233-.35.478-.69.734-1.021 63.566-88.019 127.65-153.994 190.471-196.091 49.265-33.013 98.221-51.196 141.575-52.584 41.928-1.354 69.08 13.039 79.628 25.792 17.018 18.509 24.522 43.184 22.305 73.339-1.945 26.44-11.004 56.757-27.696 92.683-30.375 65.377-80.547 136.536-125.189 198.104a3 3 0 0 1-2.429 1.238zM178.074 549.835c23.673 0 61.766 13.327 106.249 37.344 50.587 27.312 103.269 64.979 148.686 106.276 43.976-60.708 92.929-130.456 122.634-194.39 34.582-74.43 36.664-126.6 6.364-159.489a2.609 2.609 0 0 1-.11-.126c-5.378-6.535-14.707-12.466-26.268-16.701-14.007-5.13-30.811-7.545-48.589-6.972-56.201 1.799-171.558 35.047-319.281 235.107a39.025 39.025 0 0 1 4.041-.696 52.603 52.603 0 0 1 6.274-.353z" fill="#232323"/><path clip-path="url(#m)" d="M67.974 1208.035a3 3 0 0 1-2.003-5.234c.064-.058 7.45-6.942 10.905-22.021 5.872-25.624 12.459-37.25 12.737-37.732a3.001 3.001 0 0 1 5.203 2.989c-.064.111-6.448 11.462-12.091 36.084-3.912 17.073-12.39 24.827-12.749 25.149a2.998 2.998 0 0 1-2.002.765zm.239 48.509v-6l-.099.002c.139-.009 14.186-1.377 37.013-40.315a3 3 0 0 1 5.176 3.035c-24.659 42.063-40.379 43.278-42.09 43.278zm37.001 11.001a3 3 0 0 1-1.202-5.75c.289-.13 18.689-8.681 31.499-41.576a3 3 0 1 1 5.591 2.178c-13.842 35.546-33.854 44.536-34.698 44.901a2.99 2.99 0 0 1-1.19.247zm31.999 10a3.001 3.001 0 0 1-1.049-5.812c.286-.113 16.859-6.937 31.298-42.555a3 3 0 0 1 5.56 2.254c-15.64 38.579-34.009 45.648-34.783 45.93a2.976 2.976 0 0 1-1.026.183zM414.04 812.052c-1.212 0-2.563-.88-4.037-1.84-42.093-27.411-72.116-39.672-89.889-45.131a3 3 0 0 1 1.762-5.736c18.141 5.572 48.725 18.048 91.402 45.84l.961.626c.311.103.61.259.884.471 2.549 1.962 1.461 3.928 1.067 4.483-.657.927-1.375 1.287-2.15 1.287z" fill="#232323"/><path d="M1186.731 520.314s81.134-37.38 93.923-31.536c12.79 5.843-50.41 65.94-80.59 95.037" fill="#fff"/><path d="M1200.064 586.814a3 3 0 0 1-2.083-5.16l3.823-3.683c14.809-14.261 35.09-33.793 51.381-51.266 25.538-27.392 26.399-33.952 26.164-35.222-8.302-3.44-58.325 16.334-91.362 31.555a3 3 0 1 1-2.511-5.449c.204-.094 20.612-9.48 42.322-18.026 40.29-15.861 50.174-15.311 54.104-13.514 1.817.83 3.003 2.371 3.339 4.339 1.908 11.179-27.622 42.163-79.274 91.905l-3.82 3.681a2.994 2.994 0 0 1-2.083.84z" fill="#232323"/></svg></g><g transform="translate(1822.8 712.8) rotate(0.0 91.79999999999995 203.39999999999998) scale(1.2394685677252102 1.2416786469731793)"><svg width="148.128" height="327.621" viewBox="0 0 148.128 327.621"><path d="M144.813 292.34s-.05-74.808 0-123.83c.049-48.255-13.435-49.331-22.213-65.457-8.425-15.479-8.425-39.479-8.425-39.479V14.553H33.799v49.021s0 24-8.425 39.479C16.595 119.18 3.111 120.255 3.16 168.511c.05 49.021 0 123.83 0 123.83s-2.65 32.17 30.845 32.17h79.963c33.495 0 30.845-32.171 30.845-32.171z" fill="#fff"/><path d="M113.968 327.621H34.006c-10.997 0-19.579-3.264-25.507-9.701-9.206-9.996-8.561-24.037-8.449-25.695.002-3.323.049-76.13 0-123.712-.038-37.468 8.027-47.551 15.828-57.301 2.435-3.043 4.734-5.917 6.764-9.646 7.939-14.586 8.047-37.76 8.047-37.993v-49.02a3.111 3.111 0 0 1 3.111-3.111h80.376a3.111 3.111 0 0 1 3.111 3.111v49.021c0 .231.107 23.406 8.047 37.992 2.029 3.729 4.329 6.603 6.764 9.646 7.8 9.75 15.866 19.833 15.828 57.301-.049 47.585-.002 120.397 0 123.712.112 1.658.757 15.699-8.449 25.695-5.93 6.438-14.512 9.701-25.509 9.701zM36.909 17.664v45.91c0 1.012-.1 24.976-8.804 40.966-2.292 4.212-4.874 7.438-7.37 10.559-7.457 9.321-14.5 18.126-14.464 53.408.05 48.463 0 123.087 0 123.835 0 .084-.003.169-.01.253-.01.12-.898 12.774 6.846 21.145 4.702 5.082 11.733 7.659 20.899 7.659h79.962c9.166 0 16.197-2.577 20.898-7.659 7.744-8.371 6.856-21.025 6.846-21.152a3.394 3.394 0 0 1-.01-.246c0-.748-.05-75.372 0-123.835.036-35.282-7.007-44.087-14.464-53.408-2.496-3.12-5.078-6.347-7.37-10.559-8.704-15.991-8.804-39.954-8.804-40.967v-45.91H36.909z" fill="#232323"/><path d="M119.561 29.106H28.412a6.894 6.894 0 0 1-6.894-6.894V6.894A6.895 6.895 0 0 1 28.412 0h91.149a6.894 6.894 0 0 1 6.894 6.894v15.319a6.894 6.894 0 0 1-6.894 6.893z" fill="#00676c"/><path d="M3.157 171.476h142v81.698h-142z" fill="#fff"/><path d="M145.157 256.144h-142a2.97 2.97 0 0 1-2.97-2.97v-81.698a2.97 2.97 0 0 1 2.97-2.97h142a2.97 2.97 0 0 1 2.97 2.97v81.698a2.968 2.968 0 0 1-2.97 2.97zm-139.029-5.94h136.06v-75.757H6.128z" fill="#232323"/></svg></g><g transform="translate(1750.8 895.1999999999999) rotate(0.0 61.799999999999955 61.80000000000001) scale(1.2165354330708653 1.2153392330383483)"><svg width="101.6" height="101.7" viewBox="0 0 101.6 101.7"><g><g><path d="M3 35.2S84.1-2.2 96.9 3.7s-50.4 65.9-80.6 95" style="fill:#fff"/><path d="M16.3 101.7c-.8 0-1.6-.3-2.2-.9-1.1-1.2-1.1-3.1.1-4.2l3.8-3.7C32.9 78.6 53.2 59 69.5 41.5 95 14.2 95.9 7.6 95.6 6.3 87.3 2.9 37.3 22.7 4.3 37.9c-1.5.7-3.3 0-4-1.5-.7-1.5 0-3.3 1.5-4 .2-.1 20.6-9.5 42.3-18C84.4-1.5 94.2-.9 98.2.9c1.8.8 3 2.4 3.3 4.3 1.9 11.2-27.6 42.2-79.3 91.9l-3.8 3.7c-.6.6-1.3.9-2.1.9z" style="fill:#232323"/></g></g></svg></g><g transform="translate(324.0 1741.2) rotate(0.0 40.19999999999999 28.799999999999955) scale(1.227480916030534 1.1999999999999982)"><svg width="65.5" height="48" viewBox="0 0 65.5 48"><g><g><path d="M3 48c-.5 0-1.1-.1-1.5-.4-1.4-.9-1.9-2.7-1-4.1l12.6-21C23.5 5 44.7-3.8 63.3 1.6c1.6.5 2.5 2.1 2.1 3.7-.5 1.6-2.1 2.5-3.7 2.1-16.1-4.6-34.3 3-43.5 18.2l-12.6 21C5 47.5 4 48 3 48z" style="fill:#232323"/></g></g></svg></g></svg>