<svg xmlns="http://www.w3.org/2000/svg" viewBox="0 0 2500 2500" width="2500" height="2500"><g transform="translate(195.0 378.0) rotate(0.0 437.5 487.0) scale(1.0302226105016772 1.03236911753639)"><svg width="849.331" height="943.461" viewBox="0 0 849.331 943.461"><defs xmlns:xlink="http://www.w3.org/1999/xlink"><clipPath id="b"><use xlink:href="#a"/></clipPath><path id="a" d="M849.32 263.819c.447 25.039-12.921 47.119-33.094 58.944-22.461-20.742-28.944-41.499-28.077-59.551-30.34 26.867-70.336 19.172-70.336 19.172l-.011-.03a66.577 66.577 0 0 1-2.266-16.148c-.659-36.94 28.758-67.426 65.698-68.085s67.427 28.758 68.086 65.698z" fill="#000"/></defs><path d="M.73 446.725c-1.39-.945-.653-3.119 1.025-3.019 23.863 1.419 116.467 12.581 191.153 100.003 93.352 109.271 277.849-8.765 334.139 149.655 70.534 198.51 131.746 205.088 276.14 232.502 0 0-262.638 77.211-384.881-91.854-55.558-76.838-79.869-129.801-216.447-168.685C122.53 642.742 153.048 550.302.73 446.725z" fill="#00676c"/><path d="M767.348 923.254c-33.769 0-65.198-5.535-93.688-16.523-30.611-11.806-57.914-29.902-81.151-53.784-59.142-60.786-80.545-146.963-75.405-201.308 7.069-74.732-18.098-110.23-42.436-144.559-23.429-33.047-45.559-64.261-36.43-126.2 6.605-44.824 4.917-78.294-5.315-105.332-6.215-16.424-16.532-35.758-49.649-65.752l4.028-4.447c34.06 30.848 44.752 50.949 51.233 68.076 10.607 28.032 12.399 62.455 5.639 108.331-8.777 59.558 12.676 89.818 35.389 121.855 24.972 35.223 50.793 71.645 43.515 148.594-2.615 27.648 2.211 62.398 13.241 95.34 13.042 38.949 33.959 73.951 60.49 101.219 22.629 23.258 49.211 40.878 79.009 52.37 33.644 12.975 71.554 18.157 112.679 15.403l.401 5.987c-7.28.487-14.469.73-21.55.73z" fill="#00676c"/><path d="M325.06 255.962c98.406 4.154 171.348-86.364 149.813-180.332-12.529-54.67-74.322-99.917-123.399-61.071-19.885 15.739-23.421 49.301-41.641 63.81-29.246 23.291-63.947 1.936-92.809 30.206-13.413 13.138-20.441 36.721-16.426 55.062 14.938 68.239 85.858 90.695 124.462 92.325z" fill="#d9c6f4"/><g fill="#fff"><path d="M373.855 105.84c-7.968 9.876-18.663 18.763-32.992 25.543-13.68 6.471-28.558 8.767-42.817 8.757a21.671 21.671 0 0 1-1.767-3.814c-5.622-15.937 7.449-35.069 29.197-42.737 20.46-7.22 41.319-1.708 48.379 12.251z"/><path d="M298.137 143.14h-.094c-35.784-.04-67.227-14.098-68.547-14.696a3 3 0 0 1 2.474-5.466c.312.141 31.628 14.123 66.078 14.162h.09c15.617 0 29.56-2.849 41.441-8.469 12.878-6.093 23.624-14.409 31.939-24.715 14.167-17.525 21.562-40.762 21.982-69.067a3 3 0 0 1 5.999.089c-.441 29.679-8.285 54.155-23.313 72.748-8.886 11.013-20.339 19.885-34.042 26.368-12.687 6.003-27.495 9.046-44.007 9.046zm427.03 789.214c-3.072 0-6.203-.03-9.39-.096-41.935-.86-101.982-8.119-149.905-37.817-44.625-27.653-63.079-66.793-80.925-104.645-25.676-54.456-49.927-105.893-147.499-124.586-60.023-11.499-102.262-26.448-132.926-47.044-27.264-18.312-41.814-39.025-55.885-59.055-5.011-7.133-10.193-14.509-15.908-21.734-55.75-70.48-125.751-87.264-126.452-87.425a3 3 0 0 1 1.341-5.848c.74.17 18.419 4.305 43.371 17.43 22.968 12.082 56.61 34.402 86.446 72.12 5.82 7.359 11.052 14.806 16.111 22.008 28.472 40.531 55.366 78.815 185.031 103.656 45.095 8.639 79.115 25.266 104.004 50.829 22.193 22.794 35.207 50.397 47.792 77.091 17.474 37.062 35.543 75.385 78.659 102.103 46.734 28.961 105.593 36.06 146.74 36.915 44.756.931 78.838-5.12 79.177-5.181a3 3 0 0 1 1.068 5.905c-.32.057-30.225 5.374-70.85 5.374z"/></g><path d="M679.095 422.572c-1.613-1.145-39.564-29.02-45.202-114.317-3.182-48.141 17.618-97.223 52.991-125.042 25.192-19.813 54.4-25.916 82.244-17.183 29.48 9.246 38.581 29.515 41.023 44.89 2.611 16.432-1.63 30.504-1.812 31.095l-5.735-1.761.001-.003c.08-.266 4.026-13.574 1.589-28.585-3.218-19.821-15.62-33.249-36.862-39.911-25.895-8.122-53.15-2.378-76.739 16.174-33.862 26.632-53.768 73.707-50.712 119.93 2.841 42.984 14.313 70.569 23.438 86.141 9.858 16.824 19.163 23.617 19.256 23.684z" fill="#00676c"/><path d="M849.32 263.819c.447 25.039-12.921 47.119-33.094 58.944-9.587 5.624-20.704 8.928-32.604 9.141-31.349.559-58.051-20.536-65.809-49.52l-.011-.03a66.577 66.577 0 0 1-2.266-16.148c-.659-36.94 28.758-67.426 65.698-68.085s67.427 28.758 68.086 65.698z" fill="#d9c6f4"/><path d="M582.091 36.857c-.407-1.295 1.183-2.282 2.152-1.331 16.614 16.314 82.484 88.19 60.544 183.113-35.082 151.787 66.887 203.729 113.82 306.068 45.202 98.564-22.805 189.566-26.524 276.613-2.818 65.964 71.104 124.546 71.104 124.546S645.08 906.737 608.979 786.539c-26.528-88.325 10.172-137.267-3.312-241.626-11.267-87.198-67.983-117.632-68.76-215.491-.792-99.792 92.32-142.593 45.184-292.565z" fill="#00676c"/><path d="M795.681 926.525c-.386 0-.779-.075-1.158-.234-15.876-6.65-45.429-19.029-71.397-39.928-29.68-23.887-48.177-53.619-54.978-88.372-10.224-52.249-3.402-87.534 3.819-124.89 5.073-26.242 10.319-53.378 10.302-88.66-.024-49.216-22.755-84.641-46.82-122.146-18.879-29.423-38.401-59.848-46.434-97.78-13.752-64.943-1.587-98.556 11.292-134.142 4.749-13.122 9.66-26.69 13.569-42.419 17.197-69.18-32.29-148.589-32.791-149.383a3 3 0 1 1 5.072-3.206c.526.833 13.013 20.73 23.507 49.728 9.727 26.873 19.363 66.784 10.035 104.308-3.985 16.031-8.95 29.748-13.75 43.013-13.125 36.267-24.461 67.588-11.063 130.857 7.805 36.858 27.025 66.813 45.613 95.782 23.473 36.582 47.745 74.409 47.77 125.383.018 35.859-5.284 63.282-10.411 89.802-7.108 36.767-13.822 71.495-3.822 122.599 6.521 33.327 24.303 61.875 52.851 84.851 25.307 20.367 54.351 32.533 69.954 39.068a3 3 0 0 1-1.16 5.769z" fill="#fff"/><path d="M849.32 263.819c.447 25.039-12.921 47.119-33.094 58.944-22.461-20.742-28.944-41.499-28.077-59.551-30.34 26.867-70.336 19.172-70.336 19.172l-.011-.03a66.577 66.577 0 0 1-2.266-16.148c-.659-36.94 28.758-67.426 65.698-68.085s67.427 28.758 68.086 65.698z" fill="#21a0aa"/><use xmlns:xlink="http://www.w3.org/1999/xlink" fill="#00676c" xlink:href="#a"/><path clip-path="url(#b)" d="M717.872 285.14c12.087 5.777 100.506 7.694 86.869-84.941" fill="#00676c"/></svg></g><g transform="translate(170.0 1934.0) rotate(0.0 259.0 159.0) scale(1.0002162629757785 1.002338790511193)"><svg width="517.888" height="317.258" viewBox="0 0 517.888 317.258"><g transform="matrix(1.04446234 0 0 1.04401859 346 2188)"><ellipse cx="-248.179" cy="-2036.6" fill="#fff" rx="58.776" ry="58.751"/><path d="M-248.179-1977.453c-32.613 0-59.146-26.533-59.146-59.147s26.533-59.147 59.146-59.147 59.146 26.533 59.146 59.147-26.533 59.147-59.146 59.147zm0-112.547c-29.446 0-53.402 23.955-53.402 53.4s23.956 53.4 53.402 53.4 53.402-23.955 53.402-53.4-23.956-53.4-53.402-53.4z" fill="#232323"/><path d="M161.698-1796.385s-51.235-21-99.949-78.952c-41.034-48.817-115.908-174.702-191.5-148.665-46.475 16.008-36.116 54.595-66.353 75.593-36.217 25.151-111.308-16.024-130.186 51.235-13.438 47.875 39.095 90.279 108.349 98.269 65.515 7.559 172.181 2.52 379.639 2.52z" fill="#fff"/><path d="M-107.032-1791.859c-47.972 0-83.018-.935-111.239-4.191-44.902-5.181-84.012-25.118-102.067-52.032-10.477-15.617-13.492-32.862-8.718-49.869 12.302-43.83 48.35-43.814 80.118-43.802 19.646.009 38.19.016 51.196-9.016 12.063-8.377 17.312-19.68 22.87-31.646 7.905-17.021 16.079-34.621 44.186-44.302 28.664-9.873 59.341-.093 93.783 29.902 28.869 25.141 55.352 60.262 76.632 88.482 8.808 11.681 17.128 22.714 24.217 31.148 24.888 29.607 50.43 49.273 67.473 60.557 18.483 12.237 31.241 17.533 31.368 17.585a2.874 2.874 0 0 1-1.09 5.532c-68.354 0-124.678.537-174.372 1.01-36.264.346-67.36.642-94.357.642zm-143.714-144.148c-31.962 0-61.859.705-72.779 39.609-4.305 15.336-1.553 30.936 7.957 45.112 17.144 25.555 54.679 44.532 97.956 49.526 43.747 5.048 107.85 4.437 204.884 3.512 46.657-.445 99.159-.945 161.978-1.005-5.417-2.888-12.536-6.988-20.842-12.479-17.401-11.504-43.472-31.556-68.857-61.755-7.187-8.55-15.551-19.642-24.407-31.385-21.119-28.006-47.402-62.862-75.818-87.609-32.756-28.527-61.587-37.949-88.141-28.803-25.797 8.886-33.107 24.626-40.846 41.29-5.635 12.134-11.463 24.681-24.804 33.946-14.484 10.059-34.822 10.05-54.474 10.042l-1.807-.001z" fill="#232323"/></g></svg></g><g transform="translate(748.0 702.0) rotate(0.0 -186.0 175.5) scale(-1.0019959112102332 1.0018581471618302)"><svg width="371.259" height="350.349" viewBox="0 0 371.259 350.349"><g><path d="M371.26.604H0v346.745h371.26z" fill="#d9c6f4"/><path d="M237.806 0H133.452v347.35h104.354z" fill="#fff"/><g fill="#232323"><path d="M35.119 270.127a2.488 2.488 0 0 1-2.51-2.518c0-.604.202-1.107.503-1.51l14.65-18.827 15.753-20.338c.803-1.107 2.408-1.309 3.511-.402.202.1.301.301.402.402l15.753 20.338 14.65 18.828c.803 1.107.601 2.718-.401 3.523a2.701 2.701 0 0 1-1.505.504H85.59a2.489 2.489 0 0 0-2.508 2.517v48.73a2.489 2.489 0 0 1-2.51 2.517H50.47a2.489 2.489 0 0 1-2.508-2.518v-48.73a2.488 2.488 0 0 0-2.509-2.516zm349.185 74H-13.045v6.444h397.349z"/></g></g></svg></g><g transform="translate(220.0 992.0) rotate(0.0 1052.5 633.5) scale(0.9964497041420118 0.9963825102233408)"><svg width="2112.5" height="1271.6" viewBox="0 0 2112.5 1271.6"><g><path d="M-229.8-763.3c-5.3-14.6-7.9-24.9-7.9-24.9-5.1-16.3-33.3-17.3-48.3 1.5-31.1 38.9-1.9 124.7 48.8 151.9l207.3 3.2c-120.1-6.9-178.3-71.6-199.9-131.7z" style="fill:#232323" transform="translate(1108.0 1550.0) rotate(0.0 215.0 135.0) scale(1.4994176680219542 1.4981689046720674)"/></g><g transform="translate(404.0 1176.0) rotate(0.0 1125.0 670.0) scale(1.0716326919413222 1.0715713714514195)"><circle cx="173.3" cy="-124.3" style="fill:#232323" r="213.5"/><circle cx="1359.3" cy="-124.3" style="fill:#232323" r="213.5"/><circle transform="matrix(5.506638e-03 -1 1 5.506638e-03 296.6762 49.7237)" cx="173.3" cy="-124.3" style="fill:#fff" r="47.7"/><circle cx="1359.3" cy="-124.3" style="fill:#fff" r="47.7"/><path d="M298-512.4h-661c-7.8 0-14.1-6.3-14.1-14.1s6.3-14.1 14.1-14.1h661c7.8 0 14.1 6.3 14.1 14.1s-6.3 14.1-14.1 14.1z" style="fill:#232323"/><path d="m-177.2-516 18.7-21 210 186.6-18.7 21-210-186.6z" style="fill:#232323"/><path d="M1581.4-227.7c-1.4.7-3 1-4.6 1.2-51.3 6.4-100.3-30-210.5-1.4-67.2 17.4-122.5 54.7-164.3 91-11.4 9.9-21.9 19.9-31.3 29.3l-.1.1c-1 1-2.1 2.2-3.1 3.2-2 2-3.8 3.9-5.7 5.9-1.3 1.4-2.6 2.7-3.9 4.1C1065 4.1 975.4 7.2 908 8.4 803.5 10 527.3.1 432.9-3.6c-18.8-.8-35.4-12.3-42.7-29.6-15.9-38-51.3-105.6-113.7-148.4C130.3-281.9 2.3-232.7-58.6-221.4c-25.5 4.7-39.1-13.6-39.3-44.1-.1-15.1 3.1-33.1 9.8-52.8 12-35.7 35.4-76.8 71.3-115.5C68.9-526.1 176-539.3 252.3-540.7c114.3-2.1 396.2 4.7 531.2 8.3 26.8.8 39.3 33.4 19.9 51.8-188 178.8-245.5 312.9-263.2 375-4.5 16 4.8 32.6 20.7 37.1 2.6.8 5.4 1.1 8.2 1.1H883c119.1-9.4 215.3-155.9 293.4-326.3 173.9-379.4 81.6-595.3 70.7-621.8-7.3-17.8-15.6-35.3-24.8-52.3 9-6.6 34.7-15 55.3-13.1 9.4 12.2 27.6 52.8 30 59.1 13 33.9 25.3 69.5 33.8 104.8 17.2 70.8 25.1 143.5 23.7 216.4-1.5 76.4-11.8 153.4-29.5 227.7-2.5 10.6-5.2 21.1-8 31.6-.3 1.2-.7 2.3-.9 3.6v.1c0 .1-.1.3-.1.4h1c.8 0 2.1.1 3.8.2 22.7 1.3 117.6 14.4 189.5 74 67 55.5 84.1 124.6 60.5 135.3z" style="fill:#3fb1b5"/><g><path d="M1581.4-227.7c-1.4.7-3 1-4.6 1.2-51.3 6.4-100.3-30-210.5-1.4-80.5 20.9-151.6 72.6-208.5 133.6C1065 4.1 975.4 7.2 908 8.4 803.5 10 527.3.1 432.9-3.6c-18.8-.8-35.4-12.3-42.7-29.6-15.9-38-51.3-105.6-113.7-148.4C130.3-281.9 2.3-232.7-58.6-221.4c-25.5 4.7-39.1-13.6-39.3-44.1-.1-15.1 3.1-33.1 9.8-52.8 12-35.7 35.4-76.8 71.3-115.5C68.9-526.1 176-539.3 252.3-540.7c114.3-2.1 396.2 4.7 531.2 8.3 26.8.8 39.3 33.4 19.9 51.8-188 178.8-245.5 312.9-263.2 375-5.4 19.2 9 38.3 28.9 38.3l309.4-3.8c119.1-9.4 220-152.2 298.1-322.5 173.9-379.4 81.6-595.3 70.7-621.8-7.3-17.8-15.6-35.3-24.8-52.3 9-6.6 34.7-15 55.3-13.1 9.4 12.2 27.6 52.8 30 59.1 13 33.9 25.3 69.5 33.8 104.8 17.2 70.8 25.1 143.5 23.7 216.4-2.9 149.8-38.5 258.6-38.5 263.4h.9c.8 0 2.1.1 3.8.2 22.7 1.3 117.6 14.4 189.5 74 66.9 55.4 84 124.5 60.4 135.2z" style="fill:#fff"/><path d="M881.1 11.3C749.3 11.3 466.8.5 432.8-.8c-19.8-.8-37.5-13.1-45.1-31.3-15.4-36.6-50.5-104.5-112.7-147.2C148.4-266.1 35.8-240-31.5-224.5c-10.1 2.3-18.7 4.3-26.6 5.8-11.2 2.1-20.6.1-27.9-6-9.5-7.8-14.5-22-14.7-40.8-.1-15.7 3.3-34.3 9.9-53.7 13.2-39.3 38.7-80.7 71.8-116.5 87-93.7 196.4-106.4 271.1-107.8 117.2-2.1 410.6 5.1 531.3 8.3 13.5.4 25 8.4 29.8 21.1 4.8 12.6 1.8 26.3-8.1 35.6-80 76-220.4 225.7-262.4 373.7-2.3 8.3-.7 17 4.5 23.9 5.2 6.8 13.1 10.8 21.7 10.8l309.3-3.7c54.6-4.3 109.3-37.9 162.4-99.9 45.6-53.1 90.4-127.5 133.3-221 39.4-86 68.1-170.4 85.3-250.7 14-65.5 20.4-128.8 19.2-188.2-1-47.5-7.6-117.2-33.5-179.8l-.3-.8c-7.4-18-15.7-35.5-24.6-52-.7-1.2-.3-2.8.8-3.6 9.6-7 36-15.6 57.2-13.7.8.1 1.5.5 2 1.1 9.5 12.3 27.8 53.1 30.4 59.8 15.7 41 26.5 74.4 34 105.2 17.2 71 25.2 144 23.8 217.1-2.5 126.7-27.9 222.8-36.3 254.4-.6 2.4-1.2 4.6-1.6 6.2l1.5.1c3.4.2 34.6 2.3 77 15.3 44.7 13.7 83.2 33.7 114.2 59.3 30.3 25.1 47.4 50.3 56.4 67 11.3 20.9 16.6 41 14.7 55.2-1.2 8.8-5.1 15-11.3 17.8-1.6.7-3.4 1.2-5.4 1.5-19 2.4-37.4-1-58.7-4.8-36.4-6.6-81.8-14.8-151.4 3.3-71.8 18.6-143.5 64.6-207.2 132.8-41.6 44.1-86 73.1-135.7 88.6C980 10 938.4 10.6 908 11.2c-8 .1-17 .1-26.9.1zM84.2-246.3c56.7 0 123.1 13.8 193.9 62.4 63.4 43.5 99.1 112.4 114.7 149.6 6.8 16.3 22.6 27.2 40.2 28C469.5-4.9 793 7.5 907.9 5.6c30-.5 71.2-1.2 114.6-14.7 48.7-15.2 92.3-43.7 133.2-87.1 64.4-69 137-115.5 209.8-134.4 70.9-18.4 116.9-10.1 153.8-3.4 20.8 3.8 38.9 7 57 4.8 1.5-.2 2.7-.5 3.8-1 5.5-2.5 7.4-8.7 8.1-13.4 3.5-26.1-19.5-76-69.1-117.2-30.4-25.2-68.2-44.8-112.2-58.3-41.7-12.8-72.3-14.8-75.6-15l-1.5-.1c-1-.1-1.8-.1-2.2-.1h-.9c-1.5 0-2.8-1.3-2.8-2.8 0-1.1.5-3 2.4-10.4 33.6-127.1 35.5-221.9 36.1-253 1.4-72.6-6.6-145.2-23.6-215.7-7.4-30.5-18.1-63.7-33.7-104.5-2.4-6.1-19.7-44.6-28.9-57.4-18-1.3-40.3 5.4-50.1 11.4 8.6 16 16.5 32.9 23.7 50.3l.3.8c26.2 63.4 32.9 133.9 33.9 181.8 1.3 59.8-5.2 123.6-19.3 189.5-17.2 80.7-46.1 165.5-85.7 251.9-43.1 93.9-88.2 168.7-134.1 222.3C990.7-107 934.8-72.7 878.6-68.3h-.2L569-64.5c-10.4 0-19.9-4.7-26.2-13-6.3-8.3-8.3-18.8-5.4-28.8 8.6-30.3 27.4-80 68-144.5 47.4-75.3 113.3-153.3 195.9-231.8 8.2-7.8 10.7-19.1 6.7-29.6-4-10.5-13.5-17.2-24.7-17.5-120.7-3.2-414-10.4-531.1-8.3-31.9.6-80.1 3.2-130.2 19.2-53.1 16.9-99.1 46.1-136.8 86.8-32.6 35.2-57.7 75.9-70.7 114.5-6.4 18.9-9.7 36.8-9.6 51.9.1 17.2 4.5 29.8 12.6 36.5 6 4.9 13.8 6.5 23.4 4.8 7.7-1.4 16.3-3.4 26.3-5.7 30.7-7 70.6-16.3 117-16.3z" style="fill:#232323"/></g><path d="M864.3-67.1c-3.7 0-6.6-2.9-6.6-6.6 0-3.7 2.9-6.6 6.6-6.6 60.5-.5 116.3-30 170.4-90.4 49.3-54.9 98.9-137.5 151.7-252.7 39.4-85.9 66.9-170.3 81.9-251.3 12.1-65.5 16-129.1 11.7-188.9-6.6-90.7-30.3-149.4-43.8-176.3-1.4-2.7-3.1-6.1 0-9.5 2.4-2.7 6.6-2.9 9.3-.5.8.8 1.5 1.8 1.9 2.9.2.3.4.8.7 1.2 24.1 48.1 40.1 112.5 45.1 181.3 4.4 60.9.4 125.6-11.9 192.3-15.2 81.9-43 167.4-82.9 254.3-53.3 116.3-103.7 200.1-153.9 255.9-56.8 63.4-115.7 94.4-180.2 94.9zm564.1-716c-.2 4-3.5 6.9-6.8 6-42.8-11.6-73.1-58.3-70.2-112.3 2.9-54.4 38.6-97.7 82.7-104.3 3.1-.5 5.8 2.5 5.5 6.3l-11.2 204.3z" style="fill:#232323"/><path d="M1447.4-773.1h-.5c-5.2-.3-9.2-4.7-8.9-9.8l10.3-204.4c.3-5.2 4.7-9.1 9.9-8.8 5.2.3 9 4.7 8.8 9.8L1456.8-782c-.3 5-4.4 8.9-9.4 8.9z" style="fill:#d9c6f4"/><path d="M448.5-72.3h-.3c-1.6-.1-2.7-1.5-2.5-3 6.4-75.1 39-150.2 65.3-200.1 28.5-53.9 55.9-90.8 56.2-91 .9-1.2 2.7-1.5 3.9-.6s1.5 2.7.6 3.9c-.3.4-27.5 36.8-55.7 90.4-26.1 49.3-58.4 123.8-64.7 197.8-.1 1.5-1.3 2.6-2.8 2.6z" style="fill:#232323"/><circle cx="1250.1" cy="-1066" r="31.4" style="fill:#232323"/><path d="M1329.8-436.8c-.4 0-2.7-.3-5.6-.3-1.1 5.3-12.4 58.5-37 124.2-59.5 158.7-126.1 208.6-128.5 214.7.1-.1 22.8-24 42.3-40.2 42.7-56.1 72.6-122.1 91.4-172.5 23.3-62.1 37.4-122.6 37.4-125.9zM-48.4-357.2c31.6-40.9 73.5-72.6 121.5-91.7 106.1-41.8 191.1-24 243.7-1.7 66.1 28 109.9 73.8 128.7 107.3.8 1.3 2.4 1.9 3.8 1s1.9-2.4 1-3.8c-19.4-34.3-64.1-81.1-131.4-109.7-53.5-22.8-140.1-40.9-248 1.6C22-434.6-20.7-402.3-53-360.7c-26.7 34.9-42 72.5-44.2 107.8 1 6.8 2.9 12.7 5.6 17.4-2.4-38.9 12.7-81.9 43.2-121.7z" style="fill:#232323"/></g></svg></g><g transform="translate(749.0 1311.0) rotate(0.0 126.0 138.0) scale(0.9955319577610012 0.9862250093798574)"><svg width="253.131" height="279.855" viewBox="0 0 253.131 279.855"><g><path d="M2.017 0h251.114v279.855H2.017z" fill="#d9c6f4"/><g fill="#232323"><path d="M109.933 182.436a2.508 2.508 0 0 0 1.985-4.046l-14.682-18.871-15.85-20.366a2.516 2.516 0 0 0-3.969 0l-15.843 20.366-14.68 18.87a2.504 2.504 0 0 0 .442 3.519 2.52 2.52 0 0 0 1.542.527h10.387a2.51 2.51 0 0 1 2.511 2.507v48.74a2.51 2.51 0 0 0 2.512 2.507h30.235a2.51 2.51 0 0 0 2.512-2.507v-48.739a2.51 2.51 0 0 1 2.511-2.507zM-.227-10.32h6.454v300.495H-.227z"/></g></g></svg></g><g transform="translate(750.0 1053.0) rotate(0.0 -286.5 267.0) scale(-0.988971159322736 0.9884203044482616)"><svg width="579.39" height="540.256" viewBox="0 0 579.39 540.256"><g><path d="M579.39 0H0v540.254h579.39z" fill="#d9c6f4"/><path d="M341.23 0H237.16v540.254h104.07z" fill="#fff"/><g fill="#232323"><path d="M473.318 442.228a2.48 2.48 0 0 1-2.501-2.507c0-.601.2-1.102.5-1.503l14.61-18.744 15.71-20.247c.801-1.102 2.402-1.303 3.503-.4.2.1.3.3.4.4l15.71 20.247 14.61 18.744c.8 1.103.6 2.706-.4 3.508a2.7 2.7 0 0 1-1.5.502h-10.307a2.48 2.48 0 0 0-2.502 2.506v48.512a2.48 2.48 0 0 1-2.502 2.506h-30.02a2.48 2.48 0 0 1-2.502-2.506v-48.512a2.48 2.48 0 0 0-2.502-2.506zm-78.052-10.926v-29.168c0-1.202 1.001-2.205 2.2-2.205h45.331a2.224 2.224 0 0 1 2.202 2.205v29.168c0 12.73-9.606 23.455-22.215 24.858v35.383h18.112c1.201 0 2.202 1.003 2.102 2.206 0 1.202-1.001 2.105-2.102 2.105h-41.328c-1.2 0-2.2-1.003-2.101-2.206 0-1.203 1-2.105 2.101-2.105h18.713v-35.282c-13.009-1.003-23.015-11.829-23.015-24.959zm45.33 0V404.34H399.67v26.962c0 11.326 9.206 20.548 20.513 20.548 11.309 0 20.414-9.222 20.414-20.548z"/></g></g></svg></g><g transform="translate(928.0 235.0) rotate(0.0 559.0 933.0) scale(1.004392194489139 1.0034005923612501)"><svg width="1113.111" height="1859.676" viewBox="0 0 1113.111 1859.676"><clipPath id="c"><path d="M1044.924 1197.198c-20.1 232.22-383.53 421.09-383.53 421.09s-103.61 8.5-179.61-86.5c-76.687-95.859-160.97-95.55-171.75-52.72 18.41-72.43 141.64-121.439 143.75-122.28-271.98 39.98-357-92-357-92l89-263 389 4c247-56 490-38 470.14 191.41z"/></clipPath><clipPath id="d"><path d="M745.784 41.788c-11.195-7.007-29.017-10.355-46-3-12-52-80-48-92-10-44-39-105 9-89 53 5.874 16.153 15 44 6 70 22 12 60.5 76.5 60.5 76.5s85.801-101.864 126.5-102.5c64-1 63.531-65.517 34-84z"/></clipPath><clipPath id="e"><path d="M760.784 281.788c.43 14.14-7.99 28.03-23 36-33.8 17.95-91.73 4.5-91.73 4.5s-63.27 57.5-70.27 114.5c0 0-68.67-13.43-156-94 0 0 73-44 100-91-27-5-56-34-47.5-70.5 4.85-20.82 28-34 49.5-29.5 22.08 4.62 35.84 23.61 52 43 18.27 21.92 24.94 4.72 33.75-16.94 5.66-13.91 12.19-29.66 23.25-38.06 25-19 81-14 81-14s-.09 7.32.44 16.54c.7 12.19 2.51 27.69 7.06 33.96 8 11 16.5 9.5 16.5 16.5 0 6-7 13-11 16 1 41 35 40 36 73z"/></clipPath><clipPath id="f"><path d="M419.784 342.788c-61 25-205 74-320 265-103.612 172.086-151 481-3 657 0 0 42.98-74.122 186.214-144.847-14.214-17.153-42.214-60.153-45.214-111.153-.226-3.85 111.133 82.153 114.657 80.757 183.487-72.727 290.343-97.757 290.343-97.757s25-279-67-555c0 0-110.834-88.232-156-94z"/></clipPath><clipPath id="g"><path d="M1085.284 841.288c-39 43.43-90.5 40.5-87.5 22.5-14.59.47-37.01-14.87-16-28 24-15 61-24 62-56 .563-18.019-35-36-50-1-25.174 58.739-410.5 348.5-626.71 316.11-142.51-21.35-172.44-169.27-176.29-267.62-.29-7.38-.43-14.47-.46-21.21-.01-2.22-.01-4.4 0-6.54.2-36.23 3.46-60.74 3.46-60.74.67-.37 1.35-.74 2.02-1.1 141.95-77.36 280.24-58.67 327.88-19.98.03.03.07.05.1.08-.12.6-.25 1.21-.38 1.83-8.93 42.56-31.27 121.03-31.61 122.27 205.5-111.38 434.36-176.5 539.99-159.1 85 14 97.5 109.5 53.5 158.5z"/></clipPath><path d="M482.312 321.674c-.189-2.063-3.096-2.35-3.681-.363-10.375 35.217-54.595 154.39-190.848 214.477-87.192 38.451-169 29-202 98-24.138 50.471 30 71 1 170-28.06 95.79-96.798 177.238-24.401 266.111.977 1.199 2.902.792 3.293-.705 5.32-20.34 35.668-122.689 124.107-195.406 90-74 6.49-176.538 148-259 134.893-78.606 154.89-179.814 144.53-293.114z" fill="#00676c"/><path d="M66.071 1070.697a3 3 0 0 1-2.932-2.38c-19.737-93.326 13.147-141.143 44.947-187.386 13.656-19.857 26.554-38.614 35.412-60.758 11.773-29.433 9.3-51.062 6.908-71.978-3.187-27.868-6.482-56.685 23.363-102.544 21.84-33.559 56.027-47.698 95.612-64.071 35.808-14.81 76.394-31.596 115.915-66.541 48.466-42.854 70.892-92.926 81.17-127.384 11.16-37.413 10.822-65.041 10.817-65.315a3.001 3.001 0 0 1 2.947-3.052c1.611-.045 3.022 1.288 3.052 2.945.021 1.152.378 28.654-10.999 66.909-10.49 35.274-33.407 86.53-83.013 130.392-40.273 35.61-81.353 52.6-117.596 67.591-38.662 15.99-72.052 29.8-92.877 61.798-28.668 44.051-25.638 70.542-22.431 98.59 2.477 21.656 5.037 44.049-7.298 74.888-9.106 22.765-22.798 42.674-36.039 61.929-31.083 45.2-63.225 91.938-44.021 182.745a3 3 0 0 1-2.937 3.622z" fill="#fff"/><path d="M661.967 1621.378c-92.61-.4-162.033-10.79-213.033-22.02-142.51-31.34-145.71-93.25-138.9-120.29 10.78-42.83 84.58-54.64 168.75 34.72 70.15 74.47 183.183 107.59 183.183 107.59z" fill="#232323"/><path d="M696.784 1817.788c-13 17-50 37-116 37h-321c4.42-54.06 31.61-115.05 65.59-172.02 14.702-24.684 36.39-57.053 46.29-70.34 48.441-68.022 95.266-117.699 111.12-135.64l178.61 141.5c-33.946 18.23-106.029 56.942-128.82 69.18 17.5 5.97 33.26 12.67 47.42 19.79 1.54.771 3.06 1.55 4.56 2.34 3.72 1.95 7.33 3.92 10.83 5.91 74.93 42.78 98.8 96.06 101.2 101.771 0 0 .01 0 .01.01.05.15.1.26.13.34.04.109.06.159.06.159z" fill="#fff"/><path d="m574.694 1664.848-42.12 22.62c17.5 5.97 33.26 12.67 47.42 19.79 1.54.771 3.06 1.55 4.56 2.34 3.72 1.95 7.33 3.92 10.83 5.91l-191.1 49.78-76.47-86.59c12.49-20.69 25.84-40.81 39.26-59.83.22-.31.43-.61.64-.91.21-.29.41-.58.61-.87.69-.98 1.47-2.06 2.31-3.23.33-.46.68-.94 1.03-1.43 5.29-7.33 12.79-17.49 19.84-26.97.11-.15.22-.29.33-.43a1413.3 1413.3 0 0 1 16.16-20.93l.1-.13c14.93 8.61 123.92 57.15 191.94 87.27l-.42.23z" fill="#d9c6f4"/><path d="m388.955 1594.124 4.127-9.11 182.344 82.615-4.127 9.11z" fill="#fff"/><path d="M580.784 1857.788h-321a3.001 3.001 0 0 1-2.99-3.245c3.939-48.177 26.146-106.488 66.004-173.312 14.413-24.199 36.054-56.628 46.461-70.596 41.897-58.834 83.274-104.726 103.158-126.78 3.231-3.584 5.963-6.613 8.119-9.054a3 3 0 0 1 4.111-.365l178.61 141.5a3 3 0 0 1-.444 4.995c-18.688 10.036-50.125 26.732-77.862 41.462-18.671 9.916-36.482 19.375-47.85 25.448 1.151.385 2.303.77 3.457 1.154 14.312 4.775 29.111 9.713 40.783 15.582a245.59 245.59 0 0 1 4.61 2.366 365.384 365.384 0 0 1 10.915 5.956c74.968 42.802 99.554 96.32 102.417 103.061.061.123.113.249.157.38l.095.242.039.104a3.026 3.026 0 0 1-.407 2.924c-14.114 18.457-52.625 38.178-118.383 38.178zm-317.718-6h317.718c61.931 0 98.455-17.56 112.543-34.478-4.298-9.614-29.056-59.018-99.43-99.197a358.082 358.082 0 0 0-10.735-5.858 238.02 238.02 0 0 0-4.51-2.314c-11.291-5.677-25.882-10.546-39.992-15.254-3.37-1.125-6.735-2.247-10.054-3.379a3 3 0 0 1-.45-5.483c10.254-5.507 31.495-16.788 53.983-28.73 25.827-13.716 54.861-29.136 73.813-39.292L483.143 1480.9c-1.804 2.02-3.903 4.348-6.27 6.973-19.81 21.971-61.03 67.689-102.765 126.295-10.357 13.902-31.835 46.091-46.156 70.135-38.489 64.529-60.307 120.852-64.886 167.485z" fill="#232323"/><path d="M696.784 1817.788c-13 17-50 37-116 37h-321c1.84-22.56 7.65-46.32 16.27-70.5 0 0 25.89-20.24 56.73-16.5 33 4 38.11 24.65 64 33 31 10 42.5-10.5 80.5 5.5 44.06 18.55 133.488 47.5 209.918-6.418 5.801 9.243 8.631 15.626 9.382 17.409 0 0 .01 0 .01.01.05.15.1.26.13.34.04.109.06.159.06.159z" fill="#fff"/><path d="M687.204 1799.868c-76.43 53.92-165.86 24.97-209.92 6.42-38-16-49.5 4.5-80.5-5.5-25.89-8.35-31-29-64-33-30.84-3.74-56.73 16.5-56.73 16.5 6.304-17.889 16.331-41.226 29.56-66.35 0-.02.01-.04.03-.05 14.002-26.823 34.563-60.97 61.43-99.02 23.67 6.15 16.83 33.96 46.71 44.92 25.866 9.486 68.14.19 148.32 35.1.875.214 36.74 15.574 66.5 38.52 16.006 12.342 29.39 24.604 42.33 40.13v.01c5.979 7.202 11.256 14.344 16.27 22.32z" fill="#232323"/><path d="M295.74 1742.673c-1.504 0-2.388-.083-2.558-.1a3 3 0 0 1 .608-5.969c.27.024 20.68 1.736 46.266-16.27 5.643-3.97 10.264-7.529 14.341-10.668 15.749-12.126 24.425-18.806 56.004-22.854a3 3 0 1 1 .763 5.951c-29.969 3.842-37.701 9.796-53.106 21.657-4.125 3.176-8.801 6.776-14.549 10.821-22.493 15.829-41.143 17.432-47.769 17.432z" fill="#fff"/><path d="M586.309 1833.872c-5.4 0-10.875-.208-16.429-.627-29.328-2.207-60.873-10.347-93.76-24.192-20.021-8.43-32.467-6.307-44.503-4.254-10.345 1.764-21.042 3.589-35.754-1.156-11.552-3.726-19.146-9.784-26.49-15.642-9.696-7.735-18.855-15.042-36.95-17.235-25.378-3.073-48.513 10.706-54.999 15.004l-3.314-5.002c6.918-4.584 31.621-19.288 59.035-15.958 19.784 2.398 30.046 10.584 39.97 18.5 7.241 5.777 14.081 11.233 24.59 14.623 13.31 4.293 22.827 2.671 32.903.952 12.885-2.198 26.208-4.47 47.841 4.639 32.288 13.594 63.202 21.581 91.882 23.739 43.673 3.287 82.413-6.755 115.144-29.846a3 3 0 0 1 1.729-.549l.005 3.007 1.724 2.444c-29.724 20.97-64.184 31.553-102.624 31.553z" fill="#232323"/><path d="M259.787 1857.788a3 3 0 0 1-2.994-3.245c3.939-48.178 26.146-106.488 66.004-173.312 12.268-20.59 26.341-42.155 41.825-64.094a3 3 0 1 1 4.902 3.46c-15.396 21.813-29.383 43.247-41.574 63.706-39.385 66.031-61.313 123.472-65.177 170.729a3 3 0 0 1-2.986 2.756zm67.997-18c-21.308 0-38-10.322-38-23.5s16.692-23.5 38-23.5 38 10.322 38 23.5-16.692 23.5-38 23.5zm0-41c-17.346 0-32 8.014-32 17.5s14.654 17.5 32 17.5 32-8.014 32-17.5-14.655-17.5-32-17.5z" fill="#232323"/><path d="M448.17 1859.655c-93.935 0-186.873-1.836-188.447-1.868a3 3 0 0 1-2.939-3.06 3.006 3.006 0 0 1 3.06-2.939c2.664.054 267.411 5.284 354.69-1.99 44.003-3.667 67.027-19.428 78.758-32.566-4.772-10.652-32.785-66.095-114.647-107.294-11.549-5.806-25.521-11.271-40.314-17.057-2.38-.931-4.765-1.864-7.146-2.801a2.999 2.999 0 1 1 2.197-5.583c2.377.936 4.759 1.867 7.135 2.796 14.927 5.838 29.025 11.353 40.824 17.285 87.052 43.811 114.77 103.91 117.944 111.385a7.05 7.05 0 0 1 .235.578l.056.15a3.019 3.019 0 0 1-.502 3.035c-21.856 25.83-57.766 33.862-84.041 36.052-35.898 2.991-101.626 3.877-166.863 3.877z" fill="#232323"/><path d="M472.776 1756.28a7.465 7.465 0 0 1-3.388-.814c-3.686-1.875-5.164-6.372-3.298-10.062.983-1.944 24.726-47.774 80.987-60.919 4.032-.945 8.067 1.563 9.01 5.597a7.5 7.5 0 0 1-5.597 9.01c-49.251 11.507-70.809 52.682-71.021 53.096a7.515 7.515 0 0 1-6.693 4.092zm39 15a7.452 7.452 0 0 1-3.4-.821 7.491 7.491 0 0 1-3.279-10.067c.971-1.913 24.426-46.985 79.988-59.909 4.033-.939 8.066 1.571 9.004 5.606s-1.571 8.066-5.606 9.004c-48.556 11.294-69.811 51.7-70.02 52.106a7.514 7.514 0 0 1-6.687 4.081zm45 11.997a7.453 7.453 0 0 1-3.555-.903c-3.636-1.967-5-6.495-3.044-10.136.889-1.654 22.345-40.637 72.996-51.776a7.5 7.5 0 0 1 3.222 14.65c-43.704 9.61-62.826 43.898-63.014 44.243a7.516 7.516 0 0 1-6.605 3.922z" fill="#d9c6f4"/><path d="M1044.924 1197.198c-20.1 232.22-382.957 424.18-382.957 424.18s-104.183 5.41-180.183-89.59c-76.69-95.86-160.97-95.55-171.75-52.72 18.41-72.43 141.64-121.44 143.75-122.28-271.98 39.98-357-92-357-92l89-263 310.92 3.2 78.08.8c76.41-17.32 152.43-27.57 220.41-26.65 151.78 2.02 263.45 59.619 249.73 218.06z" fill="#00676c"/><path clip-path="url(#c)" d="M428.391 1366.714a3 3 0 0 1-.417-5.971c133.61-18.895 243.109-64.456 311.439-99.35 74.073-37.827 117.083-71.621 117.508-71.958a3 3 0 1 1 3.724 4.705c-.429.34-43.795 34.429-118.345 72.516-68.769 35.133-178.979 81.007-313.486 100.028a3.04 3.04 0 0 1-.423.03z" fill="#fff"/><path d="M244.785 1047.553s22.998 42.234 75.339 55.238l32.317-13.247-150.657-123.756z" fill="#232323"/><path d="M320.124 1105.791c-.242 0-.485-.029-.723-.088-53.011-13.17-76.285-54.943-77.25-56.715l-.021-.038-43.002-81.766a3 3 0 0 1 4.559-3.715l150.657 123.756a3 3 0 0 1-.767 5.095l-32.317 13.247a2.98 2.98 0 0 1-1.136.224zm-72.697-59.66c.535.962 23.119 40.814 72.474 53.509l26.754-10.967-135.309-111.148z" fill="#232323"/><path d="M419.784 342.788c-61 25-205 74-320 265-103.612 172.086-151 481-3 657 0 0 42.98-74.122 186.214-144.847-14.214-17.153-42.214-60.153-45.214-111.153-.226-3.85 111.133 82.153 114.657 80.757 183.487-72.727 290.343-97.757 290.343-97.757s25-279-67-555c0 0-110.834-88.232-156-94z" fill="#fff"/><path d="M96.783 1267.787a3 3 0 0 1-2.296-1.068c-35.538-42.261-61.493-94.033-77.145-153.878C3.123 1058.472-2.398 998.525.933 934.664 6.96 819.136 42.953 696.361 97.214 606.24 206.173 425.274 342.11 370.744 407.438 344.538c3.992-1.602 7.735-3.103 11.209-4.527a2.994 2.994 0 0 1 1.518-.2c45.475 5.809 152.936 91.005 157.488 94.629.454.362.794.848.978 1.398 47.631 142.894 63.351 286.494 68.15 381.798 5.2 103.265-.946 173.719-1.008 174.418a2.999 2.999 0 0 1-2.304 2.653c-1.067.25-108.791 25.831-289.922 97.624-2.638 1.044-3.344 1.327-63.358-42.954-18.142-13.386-39.932-29.463-49.007-35.466 5.067 54.46 37.493 96.109 44.126 104.114a2.997 2.997 0 0 1-.982 4.604c-40.553 20.024-98.77 53.311-145.818 98.178-28.123 26.819-39.023 45.302-39.13 45.485a3.002 3.002 0 0 1-2.336 1.481 2.26 2.26 0 0 1-.259.014zm323.391-921.918a1787.46 1787.46 0 0 1-10.503 4.238c-32.975 13.227-82.806 33.217-137.891 72.3-65.888 46.748-122.891 109.64-169.426 186.928-53.777 89.316-89.451 211.051-95.429 325.641-3.299 63.245 2.158 122.576 16.222 176.346 15.038 57.498 39.696 107.396 73.319 148.388 4.496-6.697 15.974-22.294 37.64-42.993 25.895-24.739 71.82-61.63 144.218-97.804-10.453-13.367-40.363-56.025-43.535-109.949a3.081 3.081 0 0 1 1.615-2.92c2.635-1.429 2.974-1.611 57.347 38.507 23.611 17.422 52.762 38.931 58.553 41.821 167.066-66.163 271.695-93.041 287.666-96.987.97-12.498 5.496-78.682.812-171.562-4.776-94.709-20.381-237.312-67.562-379.238-9.399-7.407-110.591-86.493-153.046-92.716zm325.61-304.081c-11.195-7.007-29.017-10.355-46-3-12-52-80-48-92-10-44-39-105 9-89 53 5.874 16.153 15 44 6 70 22 12 60.5 76.5 60.5 76.5s85.801-101.864 126.5-102.5c64-1 63.531-65.517 34-84z" fill="#232323"/><path clip-path="url(#d)" d="M675.781 59.788a3 3 0 0 1-2.546-4.583c18.795-30.281 48.172-27.049 49.415-26.896a3 3 0 0 1-.724 5.956c-1.092-.127-26.878-2.825-43.593 24.104a2.998 2.998 0 0 1-2.552 1.419z" fill="#fff"/><path d="M760.784 281.788c.43 14.14-7.99 28.03-23 36-33.8 17.95-91.73 4.5-91.73 4.5s-63.27 57.5-70.27 114.5c0 0-68.67-13.43-156-94 0 0 73-44 100-91-27-5-56-34-47.5-70.5 4.85-20.82 28-34 49.5-29.5 22.08 4.62 35.84 23.61 52 43 18.27 21.92 24.94 4.72 33.75-16.94 5.66-13.91 12.19-29.66 23.25-38.06 25-19 81-14 81-14s-.09 7.32.44 16.54c.7 12.19 2.51 27.69 7.06 33.96 8 11 16.5 9.5 16.5 16.5 0 6-7 13-11 16 1 41 35 40 36 73z" fill="#fff"/><g fill="#232323"><path d="M575.784 439.788c-.192 0-.385-.018-.576-.056-.716-.14-17.865-3.585-45.969-17.024-25.809-12.341-66.102-35.842-111.489-77.716a2.999 2.999 0 0 1 .486-4.774c.705-.425 69.026-41.946 96.847-86.425-14.717-3.957-28.832-14.247-37.575-27.608-6.312-9.645-12.848-25.382-8.145-45.578 5.16-22.151 29.448-36.693 53.036-31.756 21.055 4.406 34.745 21.031 49.239 38.632 1.469 1.783 2.949 3.582 4.451 5.384 5.421 6.505 9.841 9.544 13.138 9.031 5.648-.879 10.297-12.313 15.219-24.419l.31-.762c5.491-13.495 12.325-30.289 24.214-39.319 25.629-19.478 80.748-14.807 83.081-14.599a3 3 0 0 1 2.733 3.025c-.001.072-.082 7.333.435 16.331.942 16.403 3.248 27.898 6.493 32.37 3.518 4.838 7.156 7.017 10.08 8.768 3.438 2.059 6.992 4.189 6.992 9.494 0 6.664-6.388 13.66-10.948 17.415.898 19.438 9.871 28.608 18.555 37.485 8.301 8.485 16.884 17.259 17.392 34.009.474 15.59-8.949 30.435-24.592 38.741-14.511 7.706-34.742 10.844-60.126 9.326-15.407-.921-27.841-3.31-32.114-4.209-3.884 3.671-17.268 16.701-31.101 34.53-27.125 34.962-35.14 61.208-37.088 77.069a2.998 2.998 0 0 1-2.978 2.635zm-151.061-96.544c43.531 39.598 82.009 62.024 106.836 73.923 20.75 9.945 35.603 14.359 41.713 15.94 3.697-23.323 16.435-49.135 37.901-76.784 16.659-21.457 32.702-36.11 32.862-36.255a3.002 3.002 0 0 1 2.696-.702c.569.132 57.242 12.982 89.645-4.227 13.609-7.226 21.812-19.97 21.408-33.259-.437-14.41-7.502-21.632-15.684-29.995-9.262-9.468-19.76-20.199-20.317-43.022a2.998 2.998 0 0 1 1.199-2.473c4.069-3.052 9.8-9.289 9.8-13.6 0-1.752-.668-2.305-4.076-4.347-3.212-1.924-7.611-4.559-11.85-10.389-4.026-5.548-6.593-17.509-7.629-35.552a279.705 279.705 0 0 1-.446-13.913c-11.402-.676-55.475-2.148-76.183 13.589-10.581 8.036-17.072 23.986-22.286 36.802l-.309.76c-5.822 14.32-10.85 26.687-19.854 28.088-5.675.886-11.611-2.649-18.67-11.118a1176.854 1176.854 0 0 1-4.474-5.411c-14.405-17.493-26.845-32.6-45.836-36.574-20.123-4.21-41.602 8.519-45.964 27.244-4.222 18.131 1.651 32.266 7.322 40.932 8.698 13.291 23.183 23.23 37.803 25.937a3.002 3.002 0 0 1 2.055 4.444c-11.392 19.83-31.875 41.361-60.881 63.996-16.085 12.551-30.466 21.966-36.781 25.966z"/><path clip-path="url(#e)" d="M535.555 255.523c-12.484 0-21.441-2.186-21.999-2.325a3 3 0 0 1 1.453-5.821c.194.048 19.615 4.757 40.61-.014a2.999 2.999 0 1 1 1.33 5.85c-7.621 1.732-14.975 2.31-21.394 2.31z"/><g clip-path="url(#e)"><path d="M646.054 322.288s-29.277-10.746-46.986-35.258c-6.905 3.631-15.036 44.432 20.716 63.758 37.374 20.202 26.27-28.5 26.27-28.5z"/><path d="M635.104 358.684c-4.668 0-10.265-1.754-16.747-5.257-25.7-13.892-28.35-37.391-28.296-46.849.06-10.578 3.26-19.916 7.61-22.203a3 3 0 0 1 3.828.898c16.938 23.445 45.305 34.094 45.59 34.199a3 3 0 0 1 1.889 2.149c.604 2.647 5.583 26.1-5.29 34.36-2.372 1.802-5.24 2.703-8.584 2.703zm-36.159-66.85c-1.382 2.818-2.958 8.216-2.882 15.55.106 10.205 3.515 29.071 25.147 40.764 6.096 3.295 14.314 6.5 18.848 3.055 6.105-4.638 4.671-19.885 3.386-26.718-6.165-2.52-28.656-12.694-44.499-32.651z"/></g><path clip-path="url(#f)" d="M563.045 560.703c-8.554 0-22.979-11.61-50.571-85.364a3 3 0 1 1 5.62-2.102c11.117 29.717 20.992 51.71 29.352 65.367 9.519 15.552 14.642 16.379 16.403 16.012 8.068-1.683 15.905-33.378 11.44-117.168a3.001 3.001 0 0 1 5.992-.32c1.783 33.454 1.703 62.055-.231 82.713-2.431 25.966-7.507 38.882-15.975 40.648a9.925 9.925 0 0 1-2.03.214zM452.281 403.288c-.469 0-.945-.11-1.39-.343-23.764-12.448-46.559-29.292-69.686-51.493a3 3 0 1 1 4.156-4.328c22.713 21.804 45.058 38.325 68.314 50.507a3 3 0 0 1-1.394 5.657z"/><path d="M523.784 715.788c-27.219-29.656-251.672-8.759-385 56-35 17-47 36-47 45 0 18.109 30.816 17.347 52 16 107.145-6.812 337.71-74.71 380-117z"/><path d="M127.917 836.342c-22.229 0-29.881-3.96-34.238-8.05-3.248-3.048-4.895-6.919-4.895-11.505 0-5.985 4.071-13.833 11.169-21.533 8.673-9.408 21.647-18.456 37.52-26.166 60.551-29.41 145.559-52.622 233.226-63.684 61.034-7.701 138.327-10.133 155.295 8.354a3 3 0 0 1-.089 4.149c-19.761 19.762-82.166 46.885-166.931 72.555-81.596 24.709-163.979 42.075-215 45.318-6.066.387-11.384.562-16.057.562zm325.985-130.718c-23.655 0-51.894 1.878-82.452 5.734-85.764 10.821-172.252 34.42-231.355 63.128-33.244 16.147-45.311 34.144-45.311 42.301 0 2.903.982 5.235 3.001 7.13 8.77 8.23 34.725 6.582 45.809 5.876 102.004-6.484 327.736-71.405 375.732-113.933-9.434-6.741-33.166-10.236-65.424-10.236z"/></g><path d="M1085.284 841.288c-39 43.43-90.5 40.5-87.5 22.5-14.59.47-37.01-14.87-16-28 24-15 61-24 62-56 .56-18.02-35-36-50-1-25.17 58.74-410.5 348.5-626.71 316.11-142.51-21.35-172.44-169.27-176.29-267.62-1.992-50.674 2.99-88.305 3-88.49.67-.37 1.35-.74 2.02-1.1 141.95-77.36 280.24-58.67 327.88-19.98.029.03.069.05.1.08-7.219 36.067-28.574 111.634-31.99 124.1 34.101-18.49 68.851-35.7 103.58-51.46v-.01c.42-.19.851-.38 1.271-.57 2-.9 3.989-1.81 5.989-2.7 39.141-17.55 78.181-33.26 116.16-46.89 1.9-.68 3.8-1.36 5.7-2.03 1.4-.5 2.8-.99 4.19-1.47.01 0 .01-.01.02-.01 20.271-7.12 40.23-13.63 59.7-19.5 53.86-16.22 104.09-27.54 147.53-33.17.51-.07 1.02-.13 1.52-.19.11-.01.22-.03.33-.04 2.19-.28 4.36-.54 6.5-.79 15.82-1.81 30.67-2.84 44.41-3.04h.149c2.45-.03 4.86-.04 7.24-.02 8.47.07 16.47.49 23.96 1.25.24.02.48.05.71.08 2.48.26 4.91.55 7.271.89 1.27.17 2.52.37 3.76.57 4.84.8 9.44 1.86 13.81 3.16 72.43 21.56 81.19 109.13 39.69 155.34z" fill="#fff"/><path d="M402.518 1100.414c-12.296 0-24.291-.812-35.888-2.549-64.157-9.611-112.062-45.466-142.385-106.568-21.642-43.608-33.908-98.752-36.458-163.901-1.832-46.614 2.176-82.142 2.998-88.79l.016-.133a2.998 2.998 0 0 1 1.533-2.31c.68-.376 1.371-.751 2.051-1.117 81.26-44.285 154.004-53.736 200.718-53.866 55.149-.176 103.917 12.633 130.474 34.2a3 3 0 0 1 1.15 2.997c-6.399 31.967-23.613 93.956-30.162 117.53 31.532-16.915 64.253-33.086 97.36-48.115.07-.039.141-.074.214-.107l3.468-1.563c1.269-.574 2.536-1.148 3.809-1.714 38.632-17.322 77.785-33.127 116.366-46.973l.42-.15c1.766-.631 3.53-1.263 5.296-1.885 1.368-.489 2.746-.972 4.116-1.445.032-.013.064-.024.097-.036 20.052-7.043 40.181-13.618 59.829-19.542 54.501-16.413 104.299-27.607 148.01-33.272.473-.065.969-.125 1.458-.183l.17-.02a603.344 603.344 0 0 1 6.759-.823c16.014-1.832 31.056-2.861 44.715-3.06h.193a344.06 344.06 0 0 1 7.265-.02c8.502.07 16.657.496 24.238 1.265.235.02.523.054.799.091 2.653.276 5.069.572 7.306.895 1.268.17 2.544.374 3.81.578 4.894.809 9.664 1.9 14.187 3.246 31.701 9.436 54.014 31.85 62.83 63.112 9.5 33.691.958 71.809-21.763 97.108-30.227 33.66-68.744 40.802-84.927 33.016-4.594-2.21-7.325-5.614-7.842-9.62-9.889-.896-21.4-7.181-23.998-15.721-1.129-3.709-1.403-10.945 9.445-17.724 5.727-3.58 12.259-6.864 18.575-10.041 20.307-10.212 41.305-20.772 42.016-43.509.228-7.34-7.477-15.292-16.824-17.362-5.454-1.206-19.044-1.908-27.42 17.637-13.136 30.656-116.135 117.713-242.931 193.621-82.491 49.382-231.024 126.822-351.093 126.823zm-205.94-359.735c-1.069 9.12-4.51 42.866-2.797 86.481 2.482 63.393 14.874 119.228 35.837 161.469 29.4 59.242 75.796 93.997 137.9 103.302 122.997 18.424 292.761-69.46 383.01-123.488 58.132-34.802 116.101-75.023 163.228-113.257 42.259-34.283 71.145-63.285 77.27-77.58 7.037-16.421 19.834-24.32 34.233-21.132 12.392 2.745 21.846 13.026 21.523 23.407-.822 26.306-24.461 38.193-45.317 48.682-6.479 3.258-12.6 6.336-18.091 9.769-5.686 3.553-8.002 7.217-6.885 10.889 1.828 6.01 12.522 11.833 21.198 11.568a3.002 3.002 0 0 1 3.056 3.492c-.459 2.752 1.038 4.979 4.448 6.62 14.118 6.792 49.969-.558 77.861-31.618 21.381-23.807 29.408-59.711 20.452-91.471-8.238-29.211-29.108-50.161-58.767-58.989a110.498 110.498 0 0 0-13.443-3.075c-1.203-.194-2.427-.39-3.67-.557a188.457 188.457 0 0 0-7.184-.879c-.263-.034-.455-.059-.646-.074-7.451-.756-15.418-1.171-23.736-1.24a336.501 336.501 0 0 0-7.178.02h-.187c-13.417.195-28.259 1.211-44.069 3.021-2.122.248-4.281.506-6.46.785l-.116.013c-.124.018-.22.03-.317.039-.468.057-.927.111-1.387.174-43.412 5.626-92.887 16.752-147.075 33.071-19.531 5.889-39.542 12.424-59.48 19.426-.042.017-.084.032-.126.047-1.381.477-2.77.963-4.16 1.459-1.768.624-3.524 1.251-5.281 1.88l-.417.149c-38.434 13.793-77.444 29.541-115.943 46.803-1.268.564-2.524 1.133-3.781 1.702l-3.268 1.473a2.845 2.845 0 0 1-.199.1c-35.227 15.985-70.012 33.267-103.39 51.365a2.999 2.999 0 0 1-4.323-3.43c.391-1.427 1.017-3.679 1.829-6.603 6.373-22.941 23.108-83.177 29.749-115.5-25.339-19.682-72.712-31.814-124.444-31.814l-.917.001c-46.02.127-117.707 9.451-197.879 53.143l-.661.357z" fill="#232323"/><path clip-path="url(#g)" d="M459.281 921.288a3 3 0 0 1-2.656-4.39c.229-.438 23.009-44.216 34.785-83.472a3.002 3.002 0 0 1 3.736-2.012 2.998 2.998 0 0 1 2.011 3.735c-11.944 39.814-34.984 84.085-35.215 84.528a2.998 2.998 0 0 1-2.661 1.611zm538.002-50.999a3.001 3.001 0 0 1-2.868-2.125c-.549-1.8-4.276-18.146 33.499-37.544 14.665-7.531 23.896-17.483 26.695-28.781 2.489-10.046-.482-19.115-3.782-23.83a3 3 0 0 1 4.915-3.441c4.022 5.746 7.664 16.713 4.691 28.713-4.078 16.463-18.445 26.856-29.778 32.676-33.467 17.186-30.54 30.328-30.501 30.456a3 3 0 0 1-2.871 3.876z" fill="#232323"/><path d="M642.594 153.447c3.891-23 27.708-35.03 43.022-26.202a5.608 5.608 0 0 1 2.059 7.66c-.905 1.57-2.597 2.405-2.497 2.33-20.192 12.395-15.238 9.065-32.003 25.74-.386.339-.764.812-1.124 1.008l-2.524 1.368a4.862 4.862 0 0 1-6.591-1.958c-1.153-2.128-.734-7.514-.342-9.946zm23.11 20.679c6.139-2.154 20.986-6.982 34.15-15.984a4.023 4.023 0 0 1 5.619 1.079c3.225 4.786 7.067 13.436-2.69 18.418-11.987 6.121-32.771 4.802-37.873-.098-1.095-1.053-.641-2.911.794-3.415zm50.209 72.199c-1.801 1.613-3.995 2.719-6.249 3.443a23.29 23.29 0 0 1-6.961 1.038c-4.678-.003-9.363-1.158-13.531-3.729a25.526 25.526 0 0 1-5.399-4.655c-1.538-1.817-2.862-3.83-3.793-6.023-1.908-4.343-2.425-9.369-1.064-13.887a1.917 1.917 0 0 1 3.748.683l-.004.056c-.262 3.788.598 7.514 2.321 10.771a21.548 21.548 0 0 0 7.402 7.995c3 1.91 6.754 2.992 10.49 3.293 3.748.276 7.569-.28 10.783-2.06l.052-.029a1.916 1.916 0 0 1 2.205 3.104zm-169.632-25.037a3.002 3.002 0 0 1-2.904-2.256c-9.255-36.092-38.768-35.776-40.011-35.746a2.981 2.981 0 0 1-3.077-2.916 2.996 2.996 0 0 1 2.904-3.081c.353-.015 35.522-.598 45.997 40.253a3 3 0 0 1-2.909 3.746z" fill="#232323"/><path d="M92.784 811.788c21-81 62-198 146.5-316.5 94.036-131.872 258.172-173.271 295.5 39.5 10 57-1 126-11 183-86-33-396 19-431 94z" fill="#fff"/><path d="M92.783 814.788a3 3 0 0 1-2.903-3.753c30.111-116.143 79.556-222.962 146.961-317.489 27.084-37.981 59.625-68.379 94.105-87.907 35.74-20.241 71.034-27.222 102.067-20.188 25.416 5.761 47.159 20.61 64.627 44.135 18.883 25.432 32.375 60.652 40.099 104.683 9.822 55.984-.049 121.614-11 184.037a3 3 0 0 1-4.029 2.282c-39.802-15.273-135.604-12.542-232.97 6.643-104.735 20.636-179.162 53.522-194.236 85.825a3.004 3.004 0 0 1-2.721 1.732zm315.95-425.997c-23.578 0-49.033 7.458-74.83 22.069-33.724 19.099-65.598 48.896-92.177 86.169-63.818 89.496-111.434 190.082-141.672 299.226 27.356-29.271 95.335-56.55 188.525-74.911 97.267-19.165 189.825-22.095 232.864-7.586 10.609-60.843 19.858-124.463 10.386-178.453-18.318-104.412-64.569-135.94-100.142-144.004-7.403-1.677-15.075-2.51-22.954-2.51z" fill="#232323"/></svg></g><g transform="translate(1530.0 967.0) rotate(0.0 107.5 43.0) scale(1.0156168809697017 1.0150247264744414)"><svg width="211.694" height="84.727" viewBox="0 0 211.694 84.727"><path d="M112.58 81.204c-52.26 9.24-98.85-.31-112.58-21.47 2-.9 3.99-1.81 5.99-2.7 44.885-20.126 91.586-38.489 126.05-50.39.01 0 .01-.01.02-.01 42.19-6.3 75.58-13.32 79.22 5.83 5.21 27.41-39.34 58.24-98.7 68.74z" fill="#232323"/></svg></g><g transform="translate(1871.0 919.0) rotate(0.0 45.0 19.0) scale(0.9815148045149682 0.9645404472421758)"><svg width="91.695" height="39.397" viewBox="0 0 91.695 39.397"><path d="M90 28.837c-11.77 16.48-53 14-77.55-9.75C8.1 14.877 3.44 8.887 0 3.897 23.591.881 59.633-1.677 82.97 1.377c6.14 7.96 11.6 21.06 7.03 27.46z" fill="#232323"/></svg></g><g transform="translate(1512.0 458.0) rotate(0.0 283.0 288.5) scale(1.001080671891388 1.00050805695093)"><svg width="565.389" height="576.707" viewBox="0 0 565.389 576.707"><clipPath id="h"><path d="M488.948 161.128c3-70-3.13-117.5-18-121s-29 20.12-35 57.06c-10-22.06-36-57.12-69-58.06-35-1-67 31-87 80-19.99 48.97-54.14 103.94-107.19 155.28-18.02 17.45-38.23 34.49-60.81 50.72-19.451 13.987-35.069 28.867-47.364 44.12-8.38-4.344-33.017-19.437-43.737-51.263-4.57-13.569-15.031-17.942-17.33 2.484-3.672 32.631 12.627 67.855 35.354 91.066-32.868 76.833 5.005 151.154 53.237 159.723 66.84 11.87 132.42-22.047 132.84-45.13.5-27.5-37.38-18.77-38.5-18.5 1.49-.58 57.46-16.93 54.5-48.5 0 0 69-22 105-57 0 0 20.2 51.42 48 76 23.43 20.72 49.23 17.06 52 6 3-12-17-36-16-68 2.97-95.09 54.67-154.01 59-255z"/></clipPath><path d="M67.448 370.565s-33.58-13.985-46.601-52.643c-4.57-13.569-15.031-17.942-17.33 2.484-4.069 36.159 16.382 75.507 42.931 98.159z" fill="#fff"/><path d="M46.448 421.565c-.707 0-1.399-.25-1.947-.718-13.779-11.756-25.756-27.752-33.725-45.041-8.683-18.837-12.224-38.11-10.24-55.736 1.467-13.036 6.114-16.236 9.754-16.624 5.276-.567 10.403 4.617 13.401 13.518 12.443 36.942 44.588 50.697 44.911 50.831a3.004 3.004 0 0 1 1.596 3.972l-21 48a3 3 0 0 1-2.75 1.798zM11.05 309.405a.992.992 0 0 0-.123.007c-1.104.118-3.451 2.637-4.429 11.329-3.483 30.953 12.386 68.559 38.853 92.847l18.18-41.555c-8.538-4.326-34.278-19.757-45.527-53.154-2.207-6.554-5.39-9.474-6.954-9.474zM320.307 89.922c18.99 2.712 27.603 12.571 38.972 7.041 16.893-8.217-1.025-53.772-41.37-80.471C283.483-6.29 240.935-8.309 214.926 28.596c-28.704 40.727-5.942 67.256 23.936 68.059 20.765.558 50.614-11.136 81.445-6.733zM472.522 249.01s31.926-22.382 59.926-8.382c24.413 12.207 42.927 44.709 27 54-12 7-25-9-42-4-12.8 3.765-25 28-52 51-20.495 17.459-33 22-58 24s65.074-116.618 65.074-116.618z" fill="#232323"/><path d="M429.948 416.128c-1 32 19 56 16 68-2.77 11.06-28.57 14.72-52-6-27.8-24.58-48-76-48-76-36 35-105 57-105 57 2.96 31.57-53.01 47.92-54.5 48.5 1.12-.27 39-9 38.5 18.5-.42 23.083-66 57-132.84 45.13-56.85-10.1-99.33-111.55-28.51-200.79 12.44-15.68 28.38-30.98 48.35-45.34 22.58-16.23 42.79-33.27 60.81-50.72 53.05-51.34 87.2-106.31 107.19-155.28 20-49 52-81 87-80 33 .94 59 36 69 58.06 6-36.94 20.13-60.56 35-57.06s22.5 51.5 18 121c-6.697 103.429-56.03 159.91-59 255z" fill="#fff"/><g fill="#232323"><path d="M120.281 576.694c-9.466 0-19.099-.778-28.698-2.482-25.167-4.471-48.047-26.38-59.712-57.177-17.887-47.224-6.906-102.713 29.377-148.432 13.131-16.551 29.6-31.998 48.948-45.911 21.593-15.52 41.939-32.49 60.475-50.439 59.472-57.556 90.741-115.655 106.499-154.259 21.331-52.26 54.946-82.859 89.863-81.865 31.382.894 55.882 30.823 67.575 51.797 4.971-23.875 13.405-41.117 23.618-47.945 4.353-2.91 8.864-3.843 13.408-2.773 20.606 4.85 23.817 69.891 20.306 124.114-3.352 51.761-17.293 91.844-30.775 130.606-13.751 39.534-26.739 76.876-28.22 124.294-.551 17.642 5.532 32.828 10.42 45.03 3.919 9.784 7.015 17.513 5.492 23.604-1.128 4.506-5.093 8.118-10.876 9.911-10.162 3.15-28.311 1.271-46.021-14.391-23.75-20.999-41.703-60.303-47.131-73.087-18.751 16.979-44.687 30.59-63.642 39.196-17.196 7.807-31.765 12.953-37.128 14.771.196 20.137-21.151 34.114-38.437 42.117 5.37.561 10.849 2.092 15.051 5.464 4.963 3.983 7.41 9.819 7.274 17.346-.125 6.876-4.876 14.365-13.741 21.658-19.223 15.815-55.167 28.852-93.925 28.853zM365.373 42.105c-31.813 0-62.612 29.07-82.647 78.156-15.976 39.136-47.661 98.022-107.881 156.302-18.744 18.151-39.316 35.31-61.145 51-18.898 13.589-34.964 28.652-47.751 44.768-34.957 44.05-45.598 97.349-28.466 142.579 10.921 28.831 32.053 49.291 55.15 53.394 47.115 8.367 94.905-6.293 117.762-25.098 7.36-6.055 11.463-12.139 11.554-17.133.103-5.652-1.542-9.759-5.03-12.557-7.979-6.402-24.193-4.316-29.768-2.972a3.002 3.002 0 0 1-1.792-5.713c.097-.038.376-.132.82-.276 12.753-4.131 54.177-19.596 51.781-45.148a2.999 2.999 0 0 1 2.075-3.138c.684-.218 68.752-22.198 103.82-56.293a3.001 3.001 0 0 1 4.883 1.054c.199.508 20.267 51.04 47.195 74.85 14.83 13.115 30.911 16.058 40.27 13.156 3.735-1.158 6.225-3.213 6.833-5.637 1.052-4.206-1.865-11.487-5.241-19.916-5.096-12.721-11.438-28.553-10.847-47.449l2.999.094-2.999-.094c1.51-48.334 14.644-86.097 28.55-126.078 13.351-38.384 27.156-78.074 30.455-129.022 2.177-33.624 1.586-62.88-1.709-84.606-2.953-19.473-8.181-31.914-13.985-33.28-2.9-.683-5.745-.054-8.699 1.921-9.899 6.618-18.367 26.319-22.652 52.7a3 3 0 0 1-5.693.758c-8.643-19.065-33.633-55.368-66.353-56.3a49.24 49.24 0 0 0-1.489-.022z"/><path d="M447.56 162.928c-10.087 0-19.31-5.766-23.005-14.409a3.5 3.5 0 0 1 6.436-2.752c2.628 6.147 9.361 10.221 16.753 10.16 6.434-.061 14.862-4.505 17.155-11.023a3.5 3.5 0 0 1 6.603 2.323c-3.419 9.719-14.731 15.614-23.692 15.699-.083.002-.167.002-.25.002zm29.904-126.8c-.916 9.621-5.223 17.5-11.667 17.5s-10.655-7.888-11.667-17.5c-.897-8.526 2.692-17.5 11.667-17.5s12.564 8.077 11.667 17.5zm-163.016 60.5c23-9 30-25 46-22 23.773 4.457 17.018 67.122-24 114-35 40-87.1 63.104-132 20-50-48-22-88 5-96 23.018-6.82 85.802-8.488 105-16z"/><ellipse cx="413.805" cy="99.128" rx="9.643" ry="13.5"/><path d="M160.538 367.788c-29.11 32.08-68 44.21-86.86 27.09-6.47-5.86-9.75-14.41-10.08-24.41 12.44-15.68 28.38-30.98 48.35-45.34 22.58-16.23 42.79-33.27 60.81-50.72 2.29 1.14 4.4 2.57 6.31 4.3 18.87 17.12 10.57 57-18.53 89.08z"/><path clip-path="url(#h)" d="M346.948 408.128a2.999 2.999 0 0 1-2.833-2.015c-8.132-23.379-5.272-49.24-5.147-50.329a3.001 3.001 0 0 1 5.961.687c-.029.254-2.818 25.618 4.853 47.672a3 3 0 0 1-2.834 3.985zm-106.003 56a3 3 0 0 1-2.986-2.746c-1.563-18.371-10.749-32.389-27.301-41.664-12.589-7.054-24.94-8.597-25.063-8.612-1.644-.197-2.819-1.688-2.624-3.332s1.681-2.819 3.328-2.626c.545.064 13.496 1.656 27.108 9.233 18.249 10.157 28.806 26.234 30.53 46.492a3.001 3.001 0 0 1-2.992 3.255zm-95.996 69.998a2.998 2.998 0 0 1-2.158-5.082c1.179-1.222 29.445-29.916 78.158-29.916a3 3 0 1 1 0 6c-46.068 0-73.572 27.805-73.844 28.086a2.995 2.995 0 0 1-2.156.912z"/></g></svg></g></svg>