<svg width="84" height="84" viewBox="0 0 84 84" fill="none" xmlns="http://www.w3.org/2000/svg">
<rect width="84" height="84" rx="42" fill="url(#paint0_linear_238_925)"/>
<path d="M42 50.9375C45.797 50.9375 48.875 47.8595 48.875 44.0625C48.875 40.2655 45.797 37.1875 42 37.1875C38.203 37.1875 35.125 40.2655 35.125 44.0625C35.125 47.8595 38.203 50.9375 42 50.9375Z" stroke="white" stroke-width="3" stroke-linecap="round" stroke-linejoin="round"/>
<path d="M53.6875 39.9375C55.2889 39.9348 56.8688 40.3064 58.3012 41.0226C59.7336 41.7388 60.9788 42.7798 61.9375 44.0625" stroke="white" stroke-width="3" stroke-linecap="round" stroke-linejoin="round"/>
<path d="M22.0625 44.0625C23.0212 42.7798 24.2664 41.7388 25.6988 41.0226C27.1312 40.3064 28.7111 39.9348 30.3125 39.9375" stroke="white" stroke-width="3" stroke-linecap="round" stroke-linejoin="round"/>
<path d="M32.1 57.125C33.0055 55.2706 34.4136 53.7078 36.1639 52.6147C37.9142 51.5215 39.9363 50.9419 42 50.9419C44.0636 50.9419 46.0858 51.5215 47.8361 52.6147C49.5864 53.7078 50.9945 55.2706 51.9 57.125" stroke="white" stroke-width="3" stroke-linecap="round" stroke-linejoin="round"/>
<path d="M30.3125 39.9375C29.2686 39.9386 28.2459 39.6425 27.364 39.084C26.4821 38.5254 25.7774 37.7274 25.3322 36.7832C24.887 35.839 24.7197 34.7876 24.8498 33.7519C24.9799 32.7161 25.4021 31.7388 26.0671 30.9341C26.732 30.1294 27.6123 29.5305 28.6049 29.2075C29.5976 28.8844 30.6617 28.8506 31.6728 29.1098C32.684 29.3691 33.6006 29.9108 34.3153 30.6716C35.0301 31.4324 35.5136 32.3809 35.7093 33.4062" stroke="white" stroke-width="3" stroke-linecap="round" stroke-linejoin="round"/>
<path d="M48.2906 33.4062C48.4864 32.3809 48.9699 31.4324 49.6847 30.6716C50.3994 29.9108 51.316 29.3691 52.3271 29.1098C53.3383 28.8506 54.4024 28.8844 55.3951 29.2075C56.3877 29.5305 57.268 30.1294 57.9329 30.9341C58.5979 31.7388 59.0201 32.7161 59.1502 33.7519C59.2803 34.7876 59.113 35.839 58.6678 36.7832C58.2226 37.7274 57.5179 38.5254 56.636 39.084C55.7541 39.6425 54.7314 39.9386 53.6875 39.9375" stroke="white" stroke-width="3" stroke-linecap="round" stroke-linejoin="round"/>
<defs>
<linearGradient id="paint0_linear_238_925" x1="42" y1="0" x2="42" y2="84" gradientUnits="userSpaceOnUse">
<stop stop-color="#92DAF0"/>
<stop offset="1" stop-color="#21C9FF"/>
</linearGradient>
</defs>
</svg>
